<?xml version="1.0" encoding="utf-8" standalone="no"?>
<!DOCTYPE svg PUBLIC "-//W3C//DTD SVG 1.1//EN"
  "http://www.w3.org/Graphics/SVG/1.1/DTD/svg11.dtd">
<svg xmlns:xlink="http://www.w3.org/1999/xlink" width="640.8pt" height="250.995245pt" viewBox="0 0 640.8 250.995245" xmlns="http://www.w3.org/2000/svg" version="1.1">
 <metadata>
  <rdf:RDF xmlns:dc="http://purl.org/dc/elements/1.1/" xmlns:cc="http://creativecommons.org/ns#" xmlns:rdf="http://www.w3.org/1999/02/22-rdf-syntax-ns#">
   <cc:Work>
    <dc:type rdf:resource="http://purl.org/dc/dcmitype/StillImage"/>
    <dc:date>1980-01-01T00:00:00+00:00</dc:date>
    <dc:format>image/svg+xml</dc:format>
    <dc:creator>
     <cc:Agent>
      <dc:title>Matplotlib v3.10.3, https://matplotlib.org/</dc:title>
     </cc:Agent>
    </dc:creator>
   </cc:Work>
  </rdf:RDF>
 </metadata>
 <defs>
  <style type="text/css">*{stroke-linejoin: round; stroke-linecap: butt}</style>
 </defs>
 <g id="figure_1">
  <g id="patch_1">
   <path d="M 0 250.995245 
L 640.8 250.995245 
L 640.8 0 
L 0 0 
z
" style="fill: #f7f7f9"/>
  </g>
  <g id="axes_1">
   <g id="patch_2">
    <path d="M 7.2 195.476815 
L 633.6 195.476815 
L 633.6 31.837812 
L 7.2 31.837812 
z
" style="fill: #f7f7f9"/>
   </g>
   <g id="matplotlib.axis_1">
    <g id="xtick_1">
     <g id="line2d_1">
      <path d="M 35.671607 195.476815 
L 35.671607 31.837812 
" clip-path="url(#p5264f9b54a)" style="fill: none; stroke: #e2e2ea; stroke-width: 0.8; stroke-linecap: square"/>
     </g>
     <g id="line2d_2">
      <defs>
       <path id="mcc12d991f4" d="M 0 0 
L 0 3.5 
" style="stroke: #7a7a8c; stroke-width: 0.8"/>
      </defs>
      <g>
       <use xlink:href="#mcc12d991f4" x="35.671607" y="195.476815" style="fill: #7a7a8c; stroke: #7a7a8c; stroke-width: 0.8"/>
      </g>
     </g>
     <g id="text_1">
      <!-- 0 -->
      <g style="fill: #7a7a8c" transform="translate(29.77667 211.262336) rotate(-30) scale(0.09 -0.09)">
       <defs>
        <path id="DejaVuSans-30" d="M 2034 4250 
Q 1547 4250 1301 3770 
Q 1056 3291 1056 2328 
Q 1056 1369 1301 889 
Q 1547 409 2034 409 
Q 2525 409 2770 889 
Q 3016 1369 3016 2328 
Q 3016 3291 2770 3770 
Q 2525 4250 2034 4250 
z
M 2034 4750 
Q 2819 4750 3233 4129 
Q 3647 3509 3647 2328 
Q 3647 1150 3233 529 
Q 2819 -91 2034 -91 
Q 1250 -91 836 529 
Q 422 1150 422 2328 
Q 422 3509 836 4129 
Q 1250 4750 2034 4750 
z
" transform="scale(0.015625)"/>
       </defs>
       <use xlink:href="#DejaVuSans-30"/>
      </g>
     </g>
    </g>
    <g id="xtick_2">
     <g id="line2d_3">
      <path d="M 147.656974 195.476815 
L 147.656974 31.837812 
" clip-path="url(#p5264f9b54a)" style="fill: none; stroke: #e2e2ea; stroke-width: 0.8; stroke-linecap: square"/>
     </g>
     <g id="line2d_4">
      <g>
       <use xlink:href="#mcc12d991f4" x="147.656974" y="195.476815" style="fill: #7a7a8c; stroke: #7a7a8c; stroke-width: 0.8"/>
      </g>
     </g>
     <g id="text_2">
      <!-- 1e+05 -->
      <g style="fill: #7a7a8c" transform="translate(120.516674 223.528351) rotate(-30) scale(0.09 -0.09)">
       <defs>
        <path id="DejaVuSans-31" d="M 794 531 
L 1825 531 
L 1825 4091 
L 703 3866 
L 703 4441 
L 1819 4666 
L 2450 4666 
L 2450 531 
L 3481 531 
L 3481 0 
L 794 0 
L 794 531 
z
" transform="scale(0.015625)"/>
        <path id="DejaVuSans-65" d="M 3597 1894 
L 3597 1613 
L 953 1613 
Q 991 1019 1311 708 
Q 1631 397 2203 397 
Q 2534 397 2845 478 
Q 3156 559 3463 722 
L 3463 178 
Q 3153 47 2828 -22 
Q 2503 -91 2169 -91 
Q 1331 -91 842 396 
Q 353 884 353 1716 
Q 353 2575 817 3079 
Q 1281 3584 2069 3584 
Q 2775 3584 3186 3129 
Q 3597 2675 3597 1894 
z
M 3022 2063 
Q 3016 2534 2758 2815 
Q 2500 3097 2075 3097 
Q 1594 3097 1305 2825 
Q 1016 2553 972 2059 
L 3022 2063 
z
" transform="scale(0.015625)"/>
        <path id="DejaVuSans-2b" d="M 2944 4013 
L 2944 2272 
L 4684 2272 
L 4684 1741 
L 2944 1741 
L 2944 0 
L 2419 0 
L 2419 1741 
L 678 1741 
L 678 2272 
L 2419 2272 
L 2419 4013 
L 2944 4013 
z
" transform="scale(0.015625)"/>
        <path id="DejaVuSans-35" d="M 691 4666 
L 3169 4666 
L 3169 4134 
L 1269 4134 
L 1269 2991 
Q 1406 3038 1543 3061 
Q 1681 3084 1819 3084 
Q 2600 3084 3056 2656 
Q 3513 2228 3513 1497 
Q 3513 744 3044 326 
Q 2575 -91 1722 -91 
Q 1428 -91 1123 -41 
Q 819 9 494 109 
L 494 744 
Q 775 591 1075 516 
Q 1375 441 1709 441 
Q 2250 441 2565 725 
Q 2881 1009 2881 1497 
Q 2881 1984 2565 2268 
Q 2250 2553 1709 2553 
Q 1456 2553 1204 2497 
Q 953 2441 691 2322 
L 691 4666 
z
" transform="scale(0.015625)"/>
       </defs>
       <use xlink:href="#DejaVuSans-31"/>
       <use xlink:href="#DejaVuSans-65" transform="translate(63.623047 0)"/>
       <use xlink:href="#DejaVuSans-2b" transform="translate(125.146484 0)"/>
       <use xlink:href="#DejaVuSans-30" transform="translate(208.935547 0)"/>
       <use xlink:href="#DejaVuSans-35" transform="translate(272.558594 0)"/>
      </g>
     </g>
    </g>
    <g id="xtick_3">
     <g id="line2d_5">
      <path d="M 259.64234 195.476815 
L 259.64234 31.837812 
" clip-path="url(#p5264f9b54a)" style="fill: none; stroke: #e2e2ea; stroke-width: 0.8; stroke-linecap: square"/>
     </g>
     <g id="line2d_6">
      <g>
       <use xlink:href="#mcc12d991f4" x="259.64234" y="195.476815" style="fill: #7a7a8c; stroke: #7a7a8c; stroke-width: 0.8"/>
      </g>
     </g>
     <g id="text_3">
      <!-- 2e+05 -->
      <g style="fill: #7a7a8c" transform="translate(232.50204 223.528351) rotate(-30) scale(0.09 -0.09)">
       <defs>
        <path id="DejaVuSans-32" d="M 1228 531 
L 3431 531 
L 3431 0 
L 469 0 
L 469 531 
Q 828 903 1448 1529 
Q 2069 2156 2228 2338 
Q 2531 2678 2651 2914 
Q 2772 3150 2772 3378 
Q 2772 3750 2511 3984 
Q 2250 4219 1831 4219 
Q 1534 4219 1204 4116 
Q 875 4013 500 3803 
L 500 4441 
Q 881 4594 1212 4672 
Q 1544 4750 1819 4750 
Q 2544 4750 2975 4387 
Q 3406 4025 3406 3419 
Q 3406 3131 3298 2873 
Q 3191 2616 2906 2266 
Q 2828 2175 2409 1742 
Q 1991 1309 1228 531 
z
" transform="scale(0.015625)"/>
       </defs>
       <use xlink:href="#DejaVuSans-32"/>
       <use xlink:href="#DejaVuSans-65" transform="translate(63.623047 0)"/>
       <use xlink:href="#DejaVuSans-2b" transform="translate(125.146484 0)"/>
       <use xlink:href="#DejaVuSans-30" transform="translate(208.935547 0)"/>
       <use xlink:href="#DejaVuSans-35" transform="translate(272.558594 0)"/>
      </g>
     </g>
    </g>
    <g id="xtick_4">
     <g id="line2d_7">
      <path d="M 371.627706 195.476815 
L 371.627706 31.837812 
" clip-path="url(#p5264f9b54a)" style="fill: none; stroke: #e2e2ea; stroke-width: 0.8; stroke-linecap: square"/>
     </g>
     <g id="line2d_8">
      <g>
       <use xlink:href="#mcc12d991f4" x="371.627706" y="195.476815" style="fill: #7a7a8c; stroke: #7a7a8c; stroke-width: 0.8"/>
      </g>
     </g>
     <g id="text_4">
      <!-- 3e+05 -->
      <g style="fill: #7a7a8c" transform="translate(344.487406 223.528351) rotate(-30) scale(0.09 -0.09)">
       <defs>
        <path id="DejaVuSans-33" d="M 2597 2516 
Q 3050 2419 3304 2112 
Q 3559 1806 3559 1356 
Q 3559 666 3084 287 
Q 2609 -91 1734 -91 
Q 1441 -91 1130 -33 
Q 819 25 488 141 
L 488 750 
Q 750 597 1062 519 
Q 1375 441 1716 441 
Q 2309 441 2620 675 
Q 2931 909 2931 1356 
Q 2931 1769 2642 2001 
Q 2353 2234 1838 2234 
L 1294 2234 
L 1294 2753 
L 1863 2753 
Q 2328 2753 2575 2939 
Q 2822 3125 2822 3475 
Q 2822 3834 2567 4026 
Q 2313 4219 1838 4219 
Q 1578 4219 1281 4162 
Q 984 4106 628 3988 
L 628 4550 
Q 988 4650 1302 4700 
Q 1616 4750 1894 4750 
Q 2613 4750 3031 4423 
Q 3450 4097 3450 3541 
Q 3450 3153 3228 2886 
Q 3006 2619 2597 2516 
z
" transform="scale(0.015625)"/>
       </defs>
       <use xlink:href="#DejaVuSans-33"/>
       <use xlink:href="#DejaVuSans-65" transform="translate(63.623047 0)"/>
       <use xlink:href="#DejaVuSans-2b" transform="translate(125.146484 0)"/>
       <use xlink:href="#DejaVuSans-30" transform="translate(208.935547 0)"/>
       <use xlink:href="#DejaVuSans-35" transform="translate(272.558594 0)"/>
      </g>
     </g>
    </g>
    <g id="xtick_5">
     <g id="line2d_9">
      <path d="M 483.613072 195.476815 
L 483.613072 31.837812 
" clip-path="url(#p5264f9b54a)" style="fill: none; stroke: #e2e2ea; stroke-width: 0.8; stroke-linecap: square"/>
     </g>
     <g id="line2d_10">
      <g>
       <use xlink:href="#mcc12d991f4" x="483.613072" y="195.476815" style="fill: #7a7a8c; stroke: #7a7a8c; stroke-width: 0.8"/>
      </g>
     </g>
     <g id="text_5">
      <!-- 4e+05 -->
      <g style="fill: #7a7a8c" transform="translate(456.472772 223.528351) rotate(-30) scale(0.09 -0.09)">
       <defs>
        <path id="DejaVuSans-34" d="M 2419 4116 
L 825 1625 
L 2419 1625 
L 2419 4116 
z
M 2253 4666 
L 3047 4666 
L 3047 1625 
L 3713 1625 
L 3713 1100 
L 3047 1100 
L 3047 0 
L 2419 0 
L 2419 1100 
L 313 1100 
L 313 1709 
L 2253 4666 
z
" transform="scale(0.015625)"/>
       </defs>
       <use xlink:href="#DejaVuSans-34"/>
       <use xlink:href="#DejaVuSans-65" transform="translate(63.623047 0)"/>
       <use xlink:href="#DejaVuSans-2b" transform="translate(125.146484 0)"/>
       <use xlink:href="#DejaVuSans-30" transform="translate(208.935547 0)"/>
       <use xlink:href="#DejaVuSans-35" transform="translate(272.558594 0)"/>
      </g>
     </g>
    </g>
    <g id="xtick_6">
     <g id="line2d_11">
      <path d="M 595.598438 195.476815 
L 595.598438 31.837812 
" clip-path="url(#p5264f9b54a)" style="fill: none; stroke: #e2e2ea; stroke-width: 0.8; stroke-linecap: square"/>
     </g>
     <g id="line2d_12">
      <g>
       <use xlink:href="#mcc12d991f4" x="595.598438" y="195.476815" style="fill: #7a7a8c; stroke: #7a7a8c; stroke-width: 0.8"/>
      </g>
     </g>
     <g id="text_6">
      <!-- 5e+05 -->
      <g style="fill: #7a7a8c" transform="translate(568.458138 223.528351) rotate(-30) scale(0.09 -0.09)">
       <use xlink:href="#DejaVuSans-35"/>
       <use xlink:href="#DejaVuSans-65" transform="translate(63.623047 0)"/>
       <use xlink:href="#DejaVuSans-2b" transform="translate(125.146484 0)"/>
       <use xlink:href="#DejaVuSans-30" transform="translate(208.935547 0)"/>
       <use xlink:href="#DejaVuSans-35" transform="translate(272.558594 0)"/>
      </g>
     </g>
    </g>
    <g id="text_7">
     <!-- Stack Distance -->
     <g style="fill: #2d2d3a" transform="translate(279.376016 241.507588) scale(0.11 -0.11)">
      <defs>
       <path id="DejaVuSans-53" d="M 3425 4513 
L 3425 3897 
Q 3066 4069 2747 4153 
Q 2428 4238 2131 4238 
Q 1616 4238 1336 4038 
Q 1056 3838 1056 3469 
Q 1056 3159 1242 3001 
Q 1428 2844 1947 2747 
L 2328 2669 
Q 3034 2534 3370 2195 
Q 3706 1856 3706 1288 
Q 3706 609 3251 259 
Q 2797 -91 1919 -91 
Q 1588 -91 1214 -16 
Q 841 59 441 206 
L 441 856 
Q 825 641 1194 531 
Q 1563 422 1919 422 
Q 2459 422 2753 634 
Q 3047 847 3047 1241 
Q 3047 1584 2836 1778 
Q 2625 1972 2144 2069 
L 1759 2144 
Q 1053 2284 737 2584 
Q 422 2884 422 3419 
Q 422 4038 858 4394 
Q 1294 4750 2059 4750 
Q 2388 4750 2728 4690 
Q 3069 4631 3425 4513 
z
" transform="scale(0.015625)"/>
       <path id="DejaVuSans-74" d="M 1172 4494 
L 1172 3500 
L 2356 3500 
L 2356 3053 
L 1172 3053 
L 1172 1153 
Q 1172 725 1289 603 
Q 1406 481 1766 481 
L 2356 481 
L 2356 0 
L 1766 0 
Q 1100 0 847 248 
Q 594 497 594 1153 
L 594 3053 
L 172 3053 
L 172 3500 
L 594 3500 
L 594 4494 
L 1172 4494 
z
" transform="scale(0.015625)"/>
       <path id="DejaVuSans-61" d="M 2194 1759 
Q 1497 1759 1228 1600 
Q 959 1441 959 1056 
Q 959 750 1161 570 
Q 1363 391 1709 391 
Q 2188 391 2477 730 
Q 2766 1069 2766 1631 
L 2766 1759 
L 2194 1759 
z
M 3341 1997 
L 3341 0 
L 2766 0 
L 2766 531 
Q 2569 213 2275 61 
Q 1981 -91 1556 -91 
Q 1019 -91 701 211 
Q 384 513 384 1019 
Q 384 1609 779 1909 
Q 1175 2209 1959 2209 
L 2766 2209 
L 2766 2266 
Q 2766 2663 2505 2880 
Q 2244 3097 1772 3097 
Q 1472 3097 1187 3025 
Q 903 2953 641 2809 
L 641 3341 
Q 956 3463 1253 3523 
Q 1550 3584 1831 3584 
Q 2591 3584 2966 3190 
Q 3341 2797 3341 1997 
z
" transform="scale(0.015625)"/>
       <path id="DejaVuSans-63" d="M 3122 3366 
L 3122 2828 
Q 2878 2963 2633 3030 
Q 2388 3097 2138 3097 
Q 1578 3097 1268 2742 
Q 959 2388 959 1747 
Q 959 1106 1268 751 
Q 1578 397 2138 397 
Q 2388 397 2633 464 
Q 2878 531 3122 666 
L 3122 134 
Q 2881 22 2623 -34 
Q 2366 -91 2075 -91 
Q 1284 -91 818 406 
Q 353 903 353 1747 
Q 353 2603 823 3093 
Q 1294 3584 2113 3584 
Q 2378 3584 2631 3529 
Q 2884 3475 3122 3366 
z
" transform="scale(0.015625)"/>
       <path id="DejaVuSans-6b" d="M 581 4863 
L 1159 4863 
L 1159 1991 
L 2875 3500 
L 3609 3500 
L 1753 1863 
L 3688 0 
L 2938 0 
L 1159 1709 
L 1159 0 
L 581 0 
L 581 4863 
z
" transform="scale(0.015625)"/>
       <path id="DejaVuSans-20" transform="scale(0.015625)"/>
       <path id="DejaVuSans-44" d="M 1259 4147 
L 1259 519 
L 2022 519 
Q 2988 519 3436 956 
Q 3884 1394 3884 2338 
Q 3884 3275 3436 3711 
Q 2988 4147 2022 4147 
L 1259 4147 
z
M 628 4666 
L 1925 4666 
Q 3281 4666 3915 4102 
Q 4550 3538 4550 2338 
Q 4550 1131 3912 565 
Q 3275 0 1925 0 
L 628 0 
L 628 4666 
z
" transform="scale(0.015625)"/>
       <path id="DejaVuSans-69" d="M 603 3500 
L 1178 3500 
L 1178 0 
L 603 0 
L 603 3500 
z
M 603 4863 
L 1178 4863 
L 1178 4134 
L 603 4134 
L 603 4863 
z
" transform="scale(0.015625)"/>
       <path id="DejaVuSans-73" d="M 2834 3397 
L 2834 2853 
Q 2591 2978 2328 3040 
Q 2066 3103 1784 3103 
Q 1356 3103 1142 2972 
Q 928 2841 928 2578 
Q 928 2378 1081 2264 
Q 1234 2150 1697 2047 
L 1894 2003 
Q 2506 1872 2764 1633 
Q 3022 1394 3022 966 
Q 3022 478 2636 193 
Q 2250 -91 1575 -91 
Q 1294 -91 989 -36 
Q 684 19 347 128 
L 347 722 
Q 666 556 975 473 
Q 1284 391 1588 391 
Q 1994 391 2212 530 
Q 2431 669 2431 922 
Q 2431 1156 2273 1281 
Q 2116 1406 1581 1522 
L 1381 1569 
Q 847 1681 609 1914 
Q 372 2147 372 2553 
Q 372 3047 722 3315 
Q 1072 3584 1716 3584 
Q 2034 3584 2315 3537 
Q 2597 3491 2834 3397 
z
" transform="scale(0.015625)"/>
       <path id="DejaVuSans-6e" d="M 3513 2113 
L 3513 0 
L 2938 0 
L 2938 2094 
Q 2938 2591 2744 2837 
Q 2550 3084 2163 3084 
Q 1697 3084 1428 2787 
Q 1159 2491 1159 1978 
L 1159 0 
L 581 0 
L 581 3500 
L 1159 3500 
L 1159 2956 
Q 1366 3272 1645 3428 
Q 1925 3584 2291 3584 
Q 2894 3584 3203 3211 
Q 3513 2838 3513 2113 
z
" transform="scale(0.015625)"/>
      </defs>
      <use xlink:href="#DejaVuSans-53"/>
      <use xlink:href="#DejaVuSans-74" transform="translate(63.476562 0)"/>
      <use xlink:href="#DejaVuSans-61" transform="translate(102.685547 0)"/>
      <use xlink:href="#DejaVuSans-63" transform="translate(163.964844 0)"/>
      <use xlink:href="#DejaVuSans-6b" transform="translate(218.945312 0)"/>
      <use xlink:href="#DejaVuSans-20" transform="translate(276.855469 0)"/>
      <use xlink:href="#DejaVuSans-44" transform="translate(308.642578 0)"/>
      <use xlink:href="#DejaVuSans-69" transform="translate(385.644531 0)"/>
      <use xlink:href="#DejaVuSans-73" transform="translate(413.427734 0)"/>
      <use xlink:href="#DejaVuSans-74" transform="translate(465.527344 0)"/>
      <use xlink:href="#DejaVuSans-61" transform="translate(504.736328 0)"/>
      <use xlink:href="#DejaVuSans-6e" transform="translate(566.015625 0)"/>
      <use xlink:href="#DejaVuSans-63" transform="translate(629.394531 0)"/>
      <use xlink:href="#DejaVuSans-65" transform="translate(684.375 0)"/>
     </g>
    </g>
   </g>
   <g id="matplotlib.axis_2"/>
   <g id="patch_3">
    <path d="M 50.541584 150.476089 
L 50.541584 76.838538 
L 182.139507 76.838538 
L 182.139507 150.476089 
L 50.541584 150.476089 
z
" clip-path="url(#p5264f9b54a)" style="fill: #4c72b0; fill-opacity: 0.188235; stroke: #4c72b0; stroke-width: 1.5; stroke-linejoin: miter"/>
   </g>
   <g id="line2d_13">
    <path d="M 50.541584 113.657314 
L 35.672727 113.657314 
" clip-path="url(#p5264f9b54a)" style="fill: none; stroke-dasharray: 5.18,2.24; stroke-dashoffset: 0; stroke: #4c72b0; stroke-width: 1.4"/>
   </g>
   <g id="line2d_14">
    <path d="M 182.139507 113.657314 
L 378.880998 113.657314 
" clip-path="url(#p5264f9b54a)" style="fill: none; stroke-dasharray: 5.18,2.24; stroke-dashoffset: 0; stroke: #4c72b0; stroke-width: 1.4"/>
   </g>
   <g id="line2d_15">
    <path d="M 35.672727 132.066701 
L 35.672727 95.247926 
" clip-path="url(#p5264f9b54a)" style="fill: none; stroke: #4c72b0; stroke-width: 1.8; stroke-linecap: square"/>
   </g>
   <g id="line2d_16">
    <path d="M 378.880998 132.066701 
L 378.880998 95.247926 
" clip-path="url(#p5264f9b54a)" style="fill: none; stroke: #4c72b0; stroke-width: 1.8; stroke-linecap: square"/>
   </g>
   <g id="line2d_17">
    <defs>
     <path id="m126f9b72ab" d="M 0 2 
C 0.530406 2 1.03916 1.789267 1.414214 1.414214 
C 1.789267 1.03916 2 0.530406 2 0 
C 2 -0.530406 1.789267 -1.03916 1.414214 -1.414214 
C 1.03916 -1.789267 0.530406 -2 0 -2 
C -0.530406 -2 -1.03916 -1.789267 -1.414214 -1.414214 
C -1.789267 -1.03916 -2 -0.530406 -2 0 
C -2 0.530406 -1.789267 1.03916 -1.414214 1.414214 
C -1.03916 1.789267 -0.530406 2 0 2 
z
" style="stroke: #4c72b0; stroke-opacity: 0.5"/>
    </defs>
    <g clip-path="url(#p5264f9b54a)">
     <use xlink:href="#m126f9b72ab" x="424.125325" y="113.657314" style="fill: #4c72b0; fill-opacity: 0.5; stroke: #4c72b0; stroke-opacity: 0.5"/>
     <use xlink:href="#m126f9b72ab" x="532.173286" y="113.657314" style="fill: #4c72b0; fill-opacity: 0.5; stroke: #4c72b0; stroke-opacity: 0.5"/>
     <use xlink:href="#m126f9b72ab" x="383.807234" y="113.657314" style="fill: #4c72b0; fill-opacity: 0.5; stroke: #4c72b0; stroke-opacity: 0.5"/>
     <use xlink:href="#m126f9b72ab" x="386.409774" y="113.657314" style="fill: #4c72b0; fill-opacity: 0.5; stroke: #4c72b0; stroke-opacity: 0.5"/>
     <use xlink:href="#m126f9b72ab" x="415.689468" y="113.657314" style="fill: #4c72b0; fill-opacity: 0.5; stroke: #4c72b0; stroke-opacity: 0.5"/>
     <use xlink:href="#m126f9b72ab" x="466.566659" y="113.657314" style="fill: #4c72b0; fill-opacity: 0.5; stroke: #4c72b0; stroke-opacity: 0.5"/>
     <use xlink:href="#m126f9b72ab" x="519.983679" y="113.657314" style="fill: #4c72b0; fill-opacity: 0.5; stroke: #4c72b0; stroke-opacity: 0.5"/>
     <use xlink:href="#m126f9b72ab" x="413.636776" y="113.657314" style="fill: #4c72b0; fill-opacity: 0.5; stroke: #4c72b0; stroke-opacity: 0.5"/>
     <use xlink:href="#m126f9b72ab" x="400.271323" y="113.657314" style="fill: #4c72b0; fill-opacity: 0.5; stroke: #4c72b0; stroke-opacity: 0.5"/>
     <use xlink:href="#m126f9b72ab" x="562.624347" y="113.657314" style="fill: #4c72b0; fill-opacity: 0.5; stroke: #4c72b0; stroke-opacity: 0.5"/>
     <use xlink:href="#m126f9b72ab" x="415.923517" y="113.657314" style="fill: #4c72b0; fill-opacity: 0.5; stroke: #4c72b0; stroke-opacity: 0.5"/>
     <use xlink:href="#m126f9b72ab" x="392.890367" y="113.657314" style="fill: #4c72b0; fill-opacity: 0.5; stroke: #4c72b0; stroke-opacity: 0.5"/>
     <use xlink:href="#m126f9b72ab" x="415.148579" y="113.657314" style="fill: #4c72b0; fill-opacity: 0.5; stroke: #4c72b0; stroke-opacity: 0.5"/>
     <use xlink:href="#m126f9b72ab" x="542.223973" y="113.657314" style="fill: #4c72b0; fill-opacity: 0.5; stroke: #4c72b0; stroke-opacity: 0.5"/>
     <use xlink:href="#m126f9b72ab" x="387.062649" y="113.657314" style="fill: #4c72b0; fill-opacity: 0.5; stroke: #4c72b0; stroke-opacity: 0.5"/>
     <use xlink:href="#m126f9b72ab" x="407.324161" y="113.657314" style="fill: #4c72b0; fill-opacity: 0.5; stroke: #4c72b0; stroke-opacity: 0.5"/>
     <use xlink:href="#m126f9b72ab" x="412.589713" y="113.657314" style="fill: #4c72b0; fill-opacity: 0.5; stroke: #4c72b0; stroke-opacity: 0.5"/>
     <use xlink:href="#m126f9b72ab" x="540.40869" y="113.657314" style="fill: #4c72b0; fill-opacity: 0.5; stroke: #4c72b0; stroke-opacity: 0.5"/>
     <use xlink:href="#m126f9b72ab" x="498.630309" y="113.657314" style="fill: #4c72b0; fill-opacity: 0.5; stroke: #4c72b0; stroke-opacity: 0.5"/>
     <use xlink:href="#m126f9b72ab" x="479.633112" y="113.657314" style="fill: #4c72b0; fill-opacity: 0.5; stroke: #4c72b0; stroke-opacity: 0.5"/>
     <use xlink:href="#m126f9b72ab" x="426.151141" y="113.657314" style="fill: #4c72b0; fill-opacity: 0.5; stroke: #4c72b0; stroke-opacity: 0.5"/>
     <use xlink:href="#m126f9b72ab" x="434.863602" y="113.657314" style="fill: #4c72b0; fill-opacity: 0.5; stroke: #4c72b0; stroke-opacity: 0.5"/>
     <use xlink:href="#m126f9b72ab" x="426.84321" y="113.657314" style="fill: #4c72b0; fill-opacity: 0.5; stroke: #4c72b0; stroke-opacity: 0.5"/>
     <use xlink:href="#m126f9b72ab" x="431.399895" y="113.657314" style="fill: #4c72b0; fill-opacity: 0.5; stroke: #4c72b0; stroke-opacity: 0.5"/>
     <use xlink:href="#m126f9b72ab" x="409.486598" y="113.657314" style="fill: #4c72b0; fill-opacity: 0.5; stroke: #4c72b0; stroke-opacity: 0.5"/>
     <use xlink:href="#m126f9b72ab" x="435.842354" y="113.657314" style="fill: #4c72b0; fill-opacity: 0.5; stroke: #4c72b0; stroke-opacity: 0.5"/>
     <use xlink:href="#m126f9b72ab" x="574.329057" y="113.657314" style="fill: #4c72b0; fill-opacity: 0.5; stroke: #4c72b0; stroke-opacity: 0.5"/>
     <use xlink:href="#m126f9b72ab" x="415.580842" y="113.657314" style="fill: #4c72b0; fill-opacity: 0.5; stroke: #4c72b0; stroke-opacity: 0.5"/>
     <use xlink:href="#m126f9b72ab" x="469.865748" y="113.657314" style="fill: #4c72b0; fill-opacity: 0.5; stroke: #4c72b0; stroke-opacity: 0.5"/>
     <use xlink:href="#m126f9b72ab" x="410.682602" y="113.657314" style="fill: #4c72b0; fill-opacity: 0.5; stroke: #4c72b0; stroke-opacity: 0.5"/>
     <use xlink:href="#m126f9b72ab" x="426.264246" y="113.657314" style="fill: #4c72b0; fill-opacity: 0.5; stroke: #4c72b0; stroke-opacity: 0.5"/>
     <use xlink:href="#m126f9b72ab" x="395.682162" y="113.657314" style="fill: #4c72b0; fill-opacity: 0.5; stroke: #4c72b0; stroke-opacity: 0.5"/>
     <use xlink:href="#m126f9b72ab" x="476.747249" y="113.657314" style="fill: #4c72b0; fill-opacity: 0.5; stroke: #4c72b0; stroke-opacity: 0.5"/>
     <use xlink:href="#m126f9b72ab" x="449.175332" y="113.657314" style="fill: #4c72b0; fill-opacity: 0.5; stroke: #4c72b0; stroke-opacity: 0.5"/>
     <use xlink:href="#m126f9b72ab" x="392.621602" y="113.657314" style="fill: #4c72b0; fill-opacity: 0.5; stroke: #4c72b0; stroke-opacity: 0.5"/>
     <use xlink:href="#m126f9b72ab" x="501.587843" y="113.657314" style="fill: #4c72b0; fill-opacity: 0.5; stroke: #4c72b0; stroke-opacity: 0.5"/>
     <use xlink:href="#m126f9b72ab" x="445.795614" y="113.657314" style="fill: #4c72b0; fill-opacity: 0.5; stroke: #4c72b0; stroke-opacity: 0.5"/>
     <use xlink:href="#m126f9b72ab" x="427.408736" y="113.657314" style="fill: #4c72b0; fill-opacity: 0.5; stroke: #4c72b0; stroke-opacity: 0.5"/>
     <use xlink:href="#m126f9b72ab" x="406.596256" y="113.657314" style="fill: #4c72b0; fill-opacity: 0.5; stroke: #4c72b0; stroke-opacity: 0.5"/>
     <use xlink:href="#m126f9b72ab" x="554.817847" y="113.657314" style="fill: #4c72b0; fill-opacity: 0.5; stroke: #4c72b0; stroke-opacity: 0.5"/>
     <use xlink:href="#m126f9b72ab" x="397.641906" y="113.657314" style="fill: #4c72b0; fill-opacity: 0.5; stroke: #4c72b0; stroke-opacity: 0.5"/>
     <use xlink:href="#m126f9b72ab" x="460.20701" y="113.657314" style="fill: #4c72b0; fill-opacity: 0.5; stroke: #4c72b0; stroke-opacity: 0.5"/>
     <use xlink:href="#m126f9b72ab" x="458.83183" y="113.657314" style="fill: #4c72b0; fill-opacity: 0.5; stroke: #4c72b0; stroke-opacity: 0.5"/>
     <use xlink:href="#m126f9b72ab" x="380.750034" y="113.657314" style="fill: #4c72b0; fill-opacity: 0.5; stroke: #4c72b0; stroke-opacity: 0.5"/>
     <use xlink:href="#m126f9b72ab" x="495.223715" y="113.657314" style="fill: #4c72b0; fill-opacity: 0.5; stroke: #4c72b0; stroke-opacity: 0.5"/>
     <use xlink:href="#m126f9b72ab" x="427.976502" y="113.657314" style="fill: #4c72b0; fill-opacity: 0.5; stroke: #4c72b0; stroke-opacity: 0.5"/>
     <use xlink:href="#m126f9b72ab" x="416.388257" y="113.657314" style="fill: #4c72b0; fill-opacity: 0.5; stroke: #4c72b0; stroke-opacity: 0.5"/>
     <use xlink:href="#m126f9b72ab" x="431.573472" y="113.657314" style="fill: #4c72b0; fill-opacity: 0.5; stroke: #4c72b0; stroke-opacity: 0.5"/>
     <use xlink:href="#m126f9b72ab" x="452.017521" y="113.657314" style="fill: #4c72b0; fill-opacity: 0.5; stroke: #4c72b0; stroke-opacity: 0.5"/>
     <use xlink:href="#m126f9b72ab" x="421.603415" y="113.657314" style="fill: #4c72b0; fill-opacity: 0.5; stroke: #4c72b0; stroke-opacity: 0.5"/>
     <use xlink:href="#m126f9b72ab" x="472.9879" y="113.657314" style="fill: #4c72b0; fill-opacity: 0.5; stroke: #4c72b0; stroke-opacity: 0.5"/>
     <use xlink:href="#m126f9b72ab" x="467.375194" y="113.657314" style="fill: #4c72b0; fill-opacity: 0.5; stroke: #4c72b0; stroke-opacity: 0.5"/>
     <use xlink:href="#m126f9b72ab" x="421.227144" y="113.657314" style="fill: #4c72b0; fill-opacity: 0.5; stroke: #4c72b0; stroke-opacity: 0.5"/>
     <use xlink:href="#m126f9b72ab" x="605.127273" y="113.657314" style="fill: #4c72b0; fill-opacity: 0.5; stroke: #4c72b0; stroke-opacity: 0.5"/>
     <use xlink:href="#m126f9b72ab" x="506.671979" y="113.657314" style="fill: #4c72b0; fill-opacity: 0.5; stroke: #4c72b0; stroke-opacity: 0.5"/>
     <use xlink:href="#m126f9b72ab" x="423.723298" y="113.657314" style="fill: #4c72b0; fill-opacity: 0.5; stroke: #4c72b0; stroke-opacity: 0.5"/>
     <use xlink:href="#m126f9b72ab" x="431.509641" y="113.657314" style="fill: #4c72b0; fill-opacity: 0.5; stroke: #4c72b0; stroke-opacity: 0.5"/>
     <use xlink:href="#m126f9b72ab" x="503.375129" y="113.657314" style="fill: #4c72b0; fill-opacity: 0.5; stroke: #4c72b0; stroke-opacity: 0.5"/>
     <use xlink:href="#m126f9b72ab" x="420.976297" y="113.657314" style="fill: #4c72b0; fill-opacity: 0.5; stroke: #4c72b0; stroke-opacity: 0.5"/>
     <use xlink:href="#m126f9b72ab" x="418.395034" y="113.657314" style="fill: #4c72b0; fill-opacity: 0.5; stroke: #4c72b0; stroke-opacity: 0.5"/>
     <use xlink:href="#m126f9b72ab" x="523.123749" y="113.657314" style="fill: #4c72b0; fill-opacity: 0.5; stroke: #4c72b0; stroke-opacity: 0.5"/>
     <use xlink:href="#m126f9b72ab" x="455.878776" y="113.657314" style="fill: #4c72b0; fill-opacity: 0.5; stroke: #4c72b0; stroke-opacity: 0.5"/>
     <use xlink:href="#m126f9b72ab" x="486.707227" y="113.657314" style="fill: #4c72b0; fill-opacity: 0.5; stroke: #4c72b0; stroke-opacity: 0.5"/>
     <use xlink:href="#m126f9b72ab" x="503.517351" y="113.657314" style="fill: #4c72b0; fill-opacity: 0.5; stroke: #4c72b0; stroke-opacity: 0.5"/>
     <use xlink:href="#m126f9b72ab" x="411.400428" y="113.657314" style="fill: #4c72b0; fill-opacity: 0.5; stroke: #4c72b0; stroke-opacity: 0.5"/>
     <use xlink:href="#m126f9b72ab" x="393.850082" y="113.657314" style="fill: #4c72b0; fill-opacity: 0.5; stroke: #4c72b0; stroke-opacity: 0.5"/>
     <use xlink:href="#m126f9b72ab" x="391.514067" y="113.657314" style="fill: #4c72b0; fill-opacity: 0.5; stroke: #4c72b0; stroke-opacity: 0.5"/>
     <use xlink:href="#m126f9b72ab" x="447.158476" y="113.657314" style="fill: #4c72b0; fill-opacity: 0.5; stroke: #4c72b0; stroke-opacity: 0.5"/>
     <use xlink:href="#m126f9b72ab" x="418.719792" y="113.657314" style="fill: #4c72b0; fill-opacity: 0.5; stroke: #4c72b0; stroke-opacity: 0.5"/>
     <use xlink:href="#m126f9b72ab" x="448.176423" y="113.657314" style="fill: #4c72b0; fill-opacity: 0.5; stroke: #4c72b0; stroke-opacity: 0.5"/>
     <use xlink:href="#m126f9b72ab" x="518.273662" y="113.657314" style="fill: #4c72b0; fill-opacity: 0.5; stroke: #4c72b0; stroke-opacity: 0.5"/>
     <use xlink:href="#m126f9b72ab" x="428.970932" y="113.657314" style="fill: #4c72b0; fill-opacity: 0.5; stroke: #4c72b0; stroke-opacity: 0.5"/>
     <use xlink:href="#m126f9b72ab" x="389.913796" y="113.657314" style="fill: #4c72b0; fill-opacity: 0.5; stroke: #4c72b0; stroke-opacity: 0.5"/>
     <use xlink:href="#m126f9b72ab" x="405.943381" y="113.657314" style="fill: #4c72b0; fill-opacity: 0.5; stroke: #4c72b0; stroke-opacity: 0.5"/>
     <use xlink:href="#m126f9b72ab" x="412.322068" y="113.657314" style="fill: #4c72b0; fill-opacity: 0.5; stroke: #4c72b0; stroke-opacity: 0.5"/>
     <use xlink:href="#m126f9b72ab" x="419.580959" y="113.657314" style="fill: #4c72b0; fill-opacity: 0.5; stroke: #4c72b0; stroke-opacity: 0.5"/>
     <use xlink:href="#m126f9b72ab" x="533.252825" y="113.657314" style="fill: #4c72b0; fill-opacity: 0.5; stroke: #4c72b0; stroke-opacity: 0.5"/>
     <use xlink:href="#m126f9b72ab" x="549.853536" y="113.657314" style="fill: #4c72b0; fill-opacity: 0.5; stroke: #4c72b0; stroke-opacity: 0.5"/>
     <use xlink:href="#m126f9b72ab" x="399.568055" y="113.657314" style="fill: #4c72b0; fill-opacity: 0.5; stroke: #4c72b0; stroke-opacity: 0.5"/>
     <use xlink:href="#m126f9b72ab" x="448.375757" y="113.657314" style="fill: #4c72b0; fill-opacity: 0.5; stroke: #4c72b0; stroke-opacity: 0.5"/>
     <use xlink:href="#m126f9b72ab" x="461.948383" y="113.657314" style="fill: #4c72b0; fill-opacity: 0.5; stroke: #4c72b0; stroke-opacity: 0.5"/>
     <use xlink:href="#m126f9b72ab" x="392.528654" y="113.657314" style="fill: #4c72b0; fill-opacity: 0.5; stroke: #4c72b0; stroke-opacity: 0.5"/>
     <use xlink:href="#m126f9b72ab" x="390.096332" y="113.657314" style="fill: #4c72b0; fill-opacity: 0.5; stroke: #4c72b0; stroke-opacity: 0.5"/>
     <use xlink:href="#m126f9b72ab" x="390.231835" y="113.657314" style="fill: #4c72b0; fill-opacity: 0.5; stroke: #4c72b0; stroke-opacity: 0.5"/>
     <use xlink:href="#m126f9b72ab" x="385.917038" y="113.657314" style="fill: #4c72b0; fill-opacity: 0.5; stroke: #4c72b0; stroke-opacity: 0.5"/>
     <use xlink:href="#m126f9b72ab" x="407.170741" y="113.657314" style="fill: #4c72b0; fill-opacity: 0.5; stroke: #4c72b0; stroke-opacity: 0.5"/>
     <use xlink:href="#m126f9b72ab" x="473.394407" y="113.657314" style="fill: #4c72b0; fill-opacity: 0.5; stroke: #4c72b0; stroke-opacity: 0.5"/>
     <use xlink:href="#m126f9b72ab" x="460.116302" y="113.657314" style="fill: #4c72b0; fill-opacity: 0.5; stroke: #4c72b0; stroke-opacity: 0.5"/>
     <use xlink:href="#m126f9b72ab" x="449.335471" y="113.657314" style="fill: #4c72b0; fill-opacity: 0.5; stroke: #4c72b0; stroke-opacity: 0.5"/>
     <use xlink:href="#m126f9b72ab" x="468.651827" y="113.657314" style="fill: #4c72b0; fill-opacity: 0.5; stroke: #4c72b0; stroke-opacity: 0.5"/>
     <use xlink:href="#m126f9b72ab" x="403.466265" y="113.657314" style="fill: #4c72b0; fill-opacity: 0.5; stroke: #4c72b0; stroke-opacity: 0.5"/>
     <use xlink:href="#m126f9b72ab" x="484.904263" y="113.657314" style="fill: #4c72b0; fill-opacity: 0.5; stroke: #4c72b0; stroke-opacity: 0.5"/>
     <use xlink:href="#m126f9b72ab" x="604.745403" y="113.657314" style="fill: #4c72b0; fill-opacity: 0.5; stroke: #4c72b0; stroke-opacity: 0.5"/>
     <use xlink:href="#m126f9b72ab" x="546.22073" y="113.657314" style="fill: #4c72b0; fill-opacity: 0.5; stroke: #4c72b0; stroke-opacity: 0.5"/>
     <use xlink:href="#m126f9b72ab" x="556.066484" y="113.657314" style="fill: #4c72b0; fill-opacity: 0.5; stroke: #4c72b0; stroke-opacity: 0.5"/>
     <use xlink:href="#m126f9b72ab" x="415.029874" y="113.657314" style="fill: #4c72b0; fill-opacity: 0.5; stroke: #4c72b0; stroke-opacity: 0.5"/>
     <use xlink:href="#m126f9b72ab" x="455.836222" y="113.657314" style="fill: #4c72b0; fill-opacity: 0.5; stroke: #4c72b0; stroke-opacity: 0.5"/>
     <use xlink:href="#m126f9b72ab" x="400.160457" y="113.657314" style="fill: #4c72b0; fill-opacity: 0.5; stroke: #4c72b0; stroke-opacity: 0.5"/>
     <use xlink:href="#m126f9b72ab" x="381.498096" y="113.657314" style="fill: #4c72b0; fill-opacity: 0.5; stroke: #4c72b0; stroke-opacity: 0.5"/>
     <use xlink:href="#m126f9b72ab" x="382.30999" y="113.657314" style="fill: #4c72b0; fill-opacity: 0.5; stroke: #4c72b0; stroke-opacity: 0.5"/>
     <use xlink:href="#m126f9b72ab" x="397.760611" y="113.657314" style="fill: #4c72b0; fill-opacity: 0.5; stroke: #4c72b0; stroke-opacity: 0.5"/>
     <use xlink:href="#m126f9b72ab" x="406.580578" y="113.657314" style="fill: #4c72b0; fill-opacity: 0.5; stroke: #4c72b0; stroke-opacity: 0.5"/>
     <use xlink:href="#m126f9b72ab" x="463.494901" y="113.657314" style="fill: #4c72b0; fill-opacity: 0.5; stroke: #4c72b0; stroke-opacity: 0.5"/>
     <use xlink:href="#m126f9b72ab" x="484.077811" y="113.657314" style="fill: #4c72b0; fill-opacity: 0.5; stroke: #4c72b0; stroke-opacity: 0.5"/>
     <use xlink:href="#m126f9b72ab" x="382.00539" y="113.657314" style="fill: #4c72b0; fill-opacity: 0.5; stroke: #4c72b0; stroke-opacity: 0.5"/>
     <use xlink:href="#m126f9b72ab" x="397.018148" y="113.657314" style="fill: #4c72b0; fill-opacity: 0.5; stroke: #4c72b0; stroke-opacity: 0.5"/>
     <use xlink:href="#m126f9b72ab" x="400.98019" y="113.657314" style="fill: #4c72b0; fill-opacity: 0.5; stroke: #4c72b0; stroke-opacity: 0.5"/>
     <use xlink:href="#m126f9b72ab" x="495.077014" y="113.657314" style="fill: #4c72b0; fill-opacity: 0.5; stroke: #4c72b0; stroke-opacity: 0.5"/>
     <use xlink:href="#m126f9b72ab" x="386.414253" y="113.657314" style="fill: #4c72b0; fill-opacity: 0.5; stroke: #4c72b0; stroke-opacity: 0.5"/>
     <use xlink:href="#m126f9b72ab" x="469.117686" y="113.657314" style="fill: #4c72b0; fill-opacity: 0.5; stroke: #4c72b0; stroke-opacity: 0.5"/>
     <use xlink:href="#m126f9b72ab" x="450.823757" y="113.657314" style="fill: #4c72b0; fill-opacity: 0.5; stroke: #4c72b0; stroke-opacity: 0.5"/>
     <use xlink:href="#m126f9b72ab" x="403.712633" y="113.657314" style="fill: #4c72b0; fill-opacity: 0.5; stroke: #4c72b0; stroke-opacity: 0.5"/>
     <use xlink:href="#m126f9b72ab" x="402.690207" y="113.657314" style="fill: #4c72b0; fill-opacity: 0.5; stroke: #4c72b0; stroke-opacity: 0.5"/>
     <use xlink:href="#m126f9b72ab" x="500.120835" y="113.657314" style="fill: #4c72b0; fill-opacity: 0.5; stroke: #4c72b0; stroke-opacity: 0.5"/>
     <use xlink:href="#m126f9b72ab" x="415.738741" y="113.657314" style="fill: #4c72b0; fill-opacity: 0.5; stroke: #4c72b0; stroke-opacity: 0.5"/>
     <use xlink:href="#m126f9b72ab" x="450.18432" y="113.657314" style="fill: #4c72b0; fill-opacity: 0.5; stroke: #4c72b0; stroke-opacity: 0.5"/>
     <use xlink:href="#m126f9b72ab" x="528.539361" y="113.657314" style="fill: #4c72b0; fill-opacity: 0.5; stroke: #4c72b0; stroke-opacity: 0.5"/>
     <use xlink:href="#m126f9b72ab" x="513.971185" y="113.657314" style="fill: #4c72b0; fill-opacity: 0.5; stroke: #4c72b0; stroke-opacity: 0.5"/>
     <use xlink:href="#m126f9b72ab" x="386.990978" y="113.657314" style="fill: #4c72b0; fill-opacity: 0.5; stroke: #4c72b0; stroke-opacity: 0.5"/>
     <use xlink:href="#m126f9b72ab" x="513.850241" y="113.657314" style="fill: #4c72b0; fill-opacity: 0.5; stroke: #4c72b0; stroke-opacity: 0.5"/>
     <use xlink:href="#m126f9b72ab" x="502.016747" y="113.657314" style="fill: #4c72b0; fill-opacity: 0.5; stroke: #4c72b0; stroke-opacity: 0.5"/>
     <use xlink:href="#m126f9b72ab" x="393.278956" y="113.657314" style="fill: #4c72b0; fill-opacity: 0.5; stroke: #4c72b0; stroke-opacity: 0.5"/>
     <use xlink:href="#m126f9b72ab" x="561.886363" y="113.657314" style="fill: #4c72b0; fill-opacity: 0.5; stroke: #4c72b0; stroke-opacity: 0.5"/>
     <use xlink:href="#m126f9b72ab" x="534.028884" y="113.657314" style="fill: #4c72b0; fill-opacity: 0.5; stroke: #4c72b0; stroke-opacity: 0.5"/>
     <use xlink:href="#m126f9b72ab" x="421.034529" y="113.657314" style="fill: #4c72b0; fill-opacity: 0.5; stroke: #4c72b0; stroke-opacity: 0.5"/>
     <use xlink:href="#m126f9b72ab" x="414.269493" y="113.657314" style="fill: #4c72b0; fill-opacity: 0.5; stroke: #4c72b0; stroke-opacity: 0.5"/>
     <use xlink:href="#m126f9b72ab" x="457.230439" y="113.657314" style="fill: #4c72b0; fill-opacity: 0.5; stroke: #4c72b0; stroke-opacity: 0.5"/>
     <use xlink:href="#m126f9b72ab" x="444.211021" y="113.657314" style="fill: #4c72b0; fill-opacity: 0.5; stroke: #4c72b0; stroke-opacity: 0.5"/>
     <use xlink:href="#m126f9b72ab" x="393.912794" y="113.657314" style="fill: #4c72b0; fill-opacity: 0.5; stroke: #4c72b0; stroke-opacity: 0.5"/>
     <use xlink:href="#m126f9b72ab" x="404.933273" y="113.657314" style="fill: #4c72b0; fill-opacity: 0.5; stroke: #4c72b0; stroke-opacity: 0.5"/>
     <use xlink:href="#m126f9b72ab" x="458.873265" y="113.657314" style="fill: #4c72b0; fill-opacity: 0.5; stroke: #4c72b0; stroke-opacity: 0.5"/>
     <use xlink:href="#m126f9b72ab" x="416.581991" y="113.657314" style="fill: #4c72b0; fill-opacity: 0.5; stroke: #4c72b0; stroke-opacity: 0.5"/>
     <use xlink:href="#m126f9b72ab" x="407.048677" y="113.657314" style="fill: #4c72b0; fill-opacity: 0.5; stroke: #4c72b0; stroke-opacity: 0.5"/>
     <use xlink:href="#m126f9b72ab" x="411.586324" y="113.657314" style="fill: #4c72b0; fill-opacity: 0.5; stroke: #4c72b0; stroke-opacity: 0.5"/>
     <use xlink:href="#m126f9b72ab" x="407.530214" y="113.657314" style="fill: #4c72b0; fill-opacity: 0.5; stroke: #4c72b0; stroke-opacity: 0.5"/>
     <use xlink:href="#m126f9b72ab" x="535.28088" y="113.657314" style="fill: #4c72b0; fill-opacity: 0.5; stroke: #4c72b0; stroke-opacity: 0.5"/>
     <use xlink:href="#m126f9b72ab" x="513.708019" y="113.657314" style="fill: #4c72b0; fill-opacity: 0.5; stroke: #4c72b0; stroke-opacity: 0.5"/>
     <use xlink:href="#m126f9b72ab" x="505.304637" y="113.657314" style="fill: #4c72b0; fill-opacity: 0.5; stroke: #4c72b0; stroke-opacity: 0.5"/>
     <use xlink:href="#m126f9b72ab" x="454.958256" y="113.657314" style="fill: #4c72b0; fill-opacity: 0.5; stroke: #4c72b0; stroke-opacity: 0.5"/>
     <use xlink:href="#m126f9b72ab" x="454.85523" y="113.657314" style="fill: #4c72b0; fill-opacity: 0.5; stroke: #4c72b0; stroke-opacity: 0.5"/>
     <use xlink:href="#m126f9b72ab" x="518.782076" y="113.657314" style="fill: #4c72b0; fill-opacity: 0.5; stroke: #4c72b0; stroke-opacity: 0.5"/>
     <use xlink:href="#m126f9b72ab" x="527.719628" y="113.657314" style="fill: #4c72b0; fill-opacity: 0.5; stroke: #4c72b0; stroke-opacity: 0.5"/>
     <use xlink:href="#m126f9b72ab" x="429.428952" y="113.657314" style="fill: #4c72b0; fill-opacity: 0.5; stroke: #4c72b0; stroke-opacity: 0.5"/>
     <use xlink:href="#m126f9b72ab" x="481.878419" y="113.657314" style="fill: #4c72b0; fill-opacity: 0.5; stroke: #4c72b0; stroke-opacity: 0.5"/>
     <use xlink:href="#m126f9b72ab" x="383.158839" y="113.657314" style="fill: #4c72b0; fill-opacity: 0.5; stroke: #4c72b0; stroke-opacity: 0.5"/>
     <use xlink:href="#m126f9b72ab" x="524.72066" y="113.657314" style="fill: #4c72b0; fill-opacity: 0.5; stroke: #4c72b0; stroke-opacity: 0.5"/>
     <use xlink:href="#m126f9b72ab" x="445.619797" y="113.657314" style="fill: #4c72b0; fill-opacity: 0.5; stroke: #4c72b0; stroke-opacity: 0.5"/>
     <use xlink:href="#m126f9b72ab" x="478.046279" y="113.657314" style="fill: #4c72b0; fill-opacity: 0.5; stroke: #4c72b0; stroke-opacity: 0.5"/>
     <use xlink:href="#m126f9b72ab" x="388.404233" y="113.657314" style="fill: #4c72b0; fill-opacity: 0.5; stroke: #4c72b0; stroke-opacity: 0.5"/>
     <use xlink:href="#m126f9b72ab" x="381.536171" y="113.657314" style="fill: #4c72b0; fill-opacity: 0.5; stroke: #4c72b0; stroke-opacity: 0.5"/>
     <use xlink:href="#m126f9b72ab" x="400.154858" y="113.657314" style="fill: #4c72b0; fill-opacity: 0.5; stroke: #4c72b0; stroke-opacity: 0.5"/>
     <use xlink:href="#m126f9b72ab" x="493.402833" y="113.657314" style="fill: #4c72b0; fill-opacity: 0.5; stroke: #4c72b0; stroke-opacity: 0.5"/>
     <use xlink:href="#m126f9b72ab" x="427.879075" y="113.657314" style="fill: #4c72b0; fill-opacity: 0.5; stroke: #4c72b0; stroke-opacity: 0.5"/>
     <use xlink:href="#m126f9b72ab" x="495.885548" y="113.657314" style="fill: #4c72b0; fill-opacity: 0.5; stroke: #4c72b0; stroke-opacity: 0.5"/>
     <use xlink:href="#m126f9b72ab" x="390.251992" y="113.657314" style="fill: #4c72b0; fill-opacity: 0.5; stroke: #4c72b0; stroke-opacity: 0.5"/>
     <use xlink:href="#m126f9b72ab" x="410.027488" y="113.657314" style="fill: #4c72b0; fill-opacity: 0.5; stroke: #4c72b0; stroke-opacity: 0.5"/>
     <use xlink:href="#m126f9b72ab" x="430.580162" y="113.657314" style="fill: #4c72b0; fill-opacity: 0.5; stroke: #4c72b0; stroke-opacity: 0.5"/>
     <use xlink:href="#m126f9b72ab" x="455.435314" y="113.657314" style="fill: #4c72b0; fill-opacity: 0.5; stroke: #4c72b0; stroke-opacity: 0.5"/>
     <use xlink:href="#m126f9b72ab" x="519.817941" y="113.657314" style="fill: #4c72b0; fill-opacity: 0.5; stroke: #4c72b0; stroke-opacity: 0.5"/>
     <use xlink:href="#m126f9b72ab" x="499.858789" y="113.657314" style="fill: #4c72b0; fill-opacity: 0.5; stroke: #4c72b0; stroke-opacity: 0.5"/>
     <use xlink:href="#m126f9b72ab" x="389.256442" y="113.657314" style="fill: #4c72b0; fill-opacity: 0.5; stroke: #4c72b0; stroke-opacity: 0.5"/>
     <use xlink:href="#m126f9b72ab" x="486.00284" y="113.657314" style="fill: #4c72b0; fill-opacity: 0.5; stroke: #4c72b0; stroke-opacity: 0.5"/>
     <use xlink:href="#m126f9b72ab" x="456.203534" y="113.657314" style="fill: #4c72b0; fill-opacity: 0.5; stroke: #4c72b0; stroke-opacity: 0.5"/>
     <use xlink:href="#m126f9b72ab" x="382.472369" y="113.657314" style="fill: #4c72b0; fill-opacity: 0.5; stroke: #4c72b0; stroke-opacity: 0.5"/>
     <use xlink:href="#m126f9b72ab" x="497.379433" y="113.657314" style="fill: #4c72b0; fill-opacity: 0.5; stroke: #4c72b0; stroke-opacity: 0.5"/>
     <use xlink:href="#m126f9b72ab" x="405.937782" y="113.657314" style="fill: #4c72b0; fill-opacity: 0.5; stroke: #4c72b0; stroke-opacity: 0.5"/>
     <use xlink:href="#m126f9b72ab" x="452.996273" y="113.657314" style="fill: #4c72b0; fill-opacity: 0.5; stroke: #4c72b0; stroke-opacity: 0.5"/>
     <use xlink:href="#m126f9b72ab" x="463.484822" y="113.657314" style="fill: #4c72b0; fill-opacity: 0.5; stroke: #4c72b0; stroke-opacity: 0.5"/>
     <use xlink:href="#m126f9b72ab" x="502.9843" y="113.657314" style="fill: #4c72b0; fill-opacity: 0.5; stroke: #4c72b0; stroke-opacity: 0.5"/>
     <use xlink:href="#m126f9b72ab" x="426.472539" y="113.657314" style="fill: #4c72b0; fill-opacity: 0.5; stroke: #4c72b0; stroke-opacity: 0.5"/>
     <use xlink:href="#m126f9b72ab" x="447.215588" y="113.657314" style="fill: #4c72b0; fill-opacity: 0.5; stroke: #4c72b0; stroke-opacity: 0.5"/>
     <use xlink:href="#m126f9b72ab" x="496.4074" y="113.657314" style="fill: #4c72b0; fill-opacity: 0.5; stroke: #4c72b0; stroke-opacity: 0.5"/>
     <use xlink:href="#m126f9b72ab" x="478.65436" y="113.657314" style="fill: #4c72b0; fill-opacity: 0.5; stroke: #4c72b0; stroke-opacity: 0.5"/>
     <use xlink:href="#m126f9b72ab" x="434.201769" y="113.657314" style="fill: #4c72b0; fill-opacity: 0.5; stroke: #4c72b0; stroke-opacity: 0.5"/>
     <use xlink:href="#m126f9b72ab" x="512.430266" y="113.657314" style="fill: #4c72b0; fill-opacity: 0.5; stroke: #4c72b0; stroke-opacity: 0.5"/>
     <use xlink:href="#m126f9b72ab" x="593.686848" y="113.657314" style="fill: #4c72b0; fill-opacity: 0.5; stroke: #4c72b0; stroke-opacity: 0.5"/>
     <use xlink:href="#m126f9b72ab" x="395.291333" y="113.657314" style="fill: #4c72b0; fill-opacity: 0.5; stroke: #4c72b0; stroke-opacity: 0.5"/>
     <use xlink:href="#m126f9b72ab" x="414.721914" y="113.657314" style="fill: #4c72b0; fill-opacity: 0.5; stroke: #4c72b0; stroke-opacity: 0.5"/>
     <use xlink:href="#m126f9b72ab" x="467.218414" y="113.657314" style="fill: #4c72b0; fill-opacity: 0.5; stroke: #4c72b0; stroke-opacity: 0.5"/>
     <use xlink:href="#m126f9b72ab" x="383.181236" y="113.657314" style="fill: #4c72b0; fill-opacity: 0.5; stroke: #4c72b0; stroke-opacity: 0.5"/>
     <use xlink:href="#m126f9b72ab" x="442.291592" y="113.657314" style="fill: #4c72b0; fill-opacity: 0.5; stroke: #4c72b0; stroke-opacity: 0.5"/>
     <use xlink:href="#m126f9b72ab" x="533.298739" y="113.657314" style="fill: #4c72b0; fill-opacity: 0.5; stroke: #4c72b0; stroke-opacity: 0.5"/>
     <use xlink:href="#m126f9b72ab" x="475.785295" y="113.657314" style="fill: #4c72b0; fill-opacity: 0.5; stroke: #4c72b0; stroke-opacity: 0.5"/>
     <use xlink:href="#m126f9b72ab" x="409.538112" y="113.657314" style="fill: #4c72b0; fill-opacity: 0.5; stroke: #4c72b0; stroke-opacity: 0.5"/>
     <use xlink:href="#m126f9b72ab" x="519.129231" y="113.657314" style="fill: #4c72b0; fill-opacity: 0.5; stroke: #4c72b0; stroke-opacity: 0.5"/>
     <use xlink:href="#m126f9b72ab" x="468.058304" y="113.657314" style="fill: #4c72b0; fill-opacity: 0.5; stroke: #4c72b0; stroke-opacity: 0.5"/>
     <use xlink:href="#m126f9b72ab" x="418.691796" y="113.657314" style="fill: #4c72b0; fill-opacity: 0.5; stroke: #4c72b0; stroke-opacity: 0.5"/>
     <use xlink:href="#m126f9b72ab" x="529.026497" y="113.657314" style="fill: #4c72b0; fill-opacity: 0.5; stroke: #4c72b0; stroke-opacity: 0.5"/>
     <use xlink:href="#m126f9b72ab" x="391.719" y="113.657314" style="fill: #4c72b0; fill-opacity: 0.5; stroke: #4c72b0; stroke-opacity: 0.5"/>
     <use xlink:href="#m126f9b72ab" x="398.906221" y="113.657314" style="fill: #4c72b0; fill-opacity: 0.5; stroke: #4c72b0; stroke-opacity: 0.5"/>
     <use xlink:href="#m126f9b72ab" x="408.736296" y="113.657314" style="fill: #4c72b0; fill-opacity: 0.5; stroke: #4c72b0; stroke-opacity: 0.5"/>
     <use xlink:href="#m126f9b72ab" x="399.132431" y="113.657314" style="fill: #4c72b0; fill-opacity: 0.5; stroke: #4c72b0; stroke-opacity: 0.5"/>
     <use xlink:href="#m126f9b72ab" x="509.985626" y="113.657314" style="fill: #4c72b0; fill-opacity: 0.5; stroke: #4c72b0; stroke-opacity: 0.5"/>
     <use xlink:href="#m126f9b72ab" x="481.773152" y="113.657314" style="fill: #4c72b0; fill-opacity: 0.5; stroke: #4c72b0; stroke-opacity: 0.5"/>
     <use xlink:href="#m126f9b72ab" x="466.246381" y="113.657314" style="fill: #4c72b0; fill-opacity: 0.5; stroke: #4c72b0; stroke-opacity: 0.5"/>
     <use xlink:href="#m126f9b72ab" x="424.055895" y="113.657314" style="fill: #4c72b0; fill-opacity: 0.5; stroke: #4c72b0; stroke-opacity: 0.5"/>
     <use xlink:href="#m126f9b72ab" x="490.533767" y="113.657314" style="fill: #4c72b0; fill-opacity: 0.5; stroke: #4c72b0; stroke-opacity: 0.5"/>
     <use xlink:href="#m126f9b72ab" x="581.332622" y="113.657314" style="fill: #4c72b0; fill-opacity: 0.5; stroke: #4c72b0; stroke-opacity: 0.5"/>
     <use xlink:href="#m126f9b72ab" x="453.24824" y="113.657314" style="fill: #4c72b0; fill-opacity: 0.5; stroke: #4c72b0; stroke-opacity: 0.5"/>
     <use xlink:href="#m126f9b72ab" x="409.234631" y="113.657314" style="fill: #4c72b0; fill-opacity: 0.5; stroke: #4c72b0; stroke-opacity: 0.5"/>
     <use xlink:href="#m126f9b72ab" x="521.035222" y="113.657314" style="fill: #4c72b0; fill-opacity: 0.5; stroke: #4c72b0; stroke-opacity: 0.5"/>
     <use xlink:href="#m126f9b72ab" x="523.684795" y="113.657314" style="fill: #4c72b0; fill-opacity: 0.5; stroke: #4c72b0; stroke-opacity: 0.5"/>
     <use xlink:href="#m126f9b72ab" x="384.190224" y="113.657314" style="fill: #4c72b0; fill-opacity: 0.5; stroke: #4c72b0; stroke-opacity: 0.5"/>
     <use xlink:href="#m126f9b72ab" x="566.982817" y="113.657314" style="fill: #4c72b0; fill-opacity: 0.5; stroke: #4c72b0; stroke-opacity: 0.5"/>
     <use xlink:href="#m126f9b72ab" x="460.329075" y="113.657314" style="fill: #4c72b0; fill-opacity: 0.5; stroke: #4c72b0; stroke-opacity: 0.5"/>
     <use xlink:href="#m126f9b72ab" x="397.130133" y="113.657314" style="fill: #4c72b0; fill-opacity: 0.5; stroke: #4c72b0; stroke-opacity: 0.5"/>
     <use xlink:href="#m126f9b72ab" x="381.947157" y="113.657314" style="fill: #4c72b0; fill-opacity: 0.5; stroke: #4c72b0; stroke-opacity: 0.5"/>
     <use xlink:href="#m126f9b72ab" x="409.067773" y="113.657314" style="fill: #4c72b0; fill-opacity: 0.5; stroke: #4c72b0; stroke-opacity: 0.5"/>
     <use xlink:href="#m126f9b72ab" x="492.866423" y="113.657314" style="fill: #4c72b0; fill-opacity: 0.5; stroke: #4c72b0; stroke-opacity: 0.5"/>
     <use xlink:href="#m126f9b72ab" x="577.323546" y="113.657314" style="fill: #4c72b0; fill-opacity: 0.5; stroke: #4c72b0; stroke-opacity: 0.5"/>
     <use xlink:href="#m126f9b72ab" x="464.519567" y="113.657314" style="fill: #4c72b0; fill-opacity: 0.5; stroke: #4c72b0; stroke-opacity: 0.5"/>
     <use xlink:href="#m126f9b72ab" x="525.952499" y="113.657314" style="fill: #4c72b0; fill-opacity: 0.5; stroke: #4c72b0; stroke-opacity: 0.5"/>
     <use xlink:href="#m126f9b72ab" x="562.436211" y="113.657314" style="fill: #4c72b0; fill-opacity: 0.5; stroke: #4c72b0; stroke-opacity: 0.5"/>
     <use xlink:href="#m126f9b72ab" x="429.911609" y="113.657314" style="fill: #4c72b0; fill-opacity: 0.5; stroke: #4c72b0; stroke-opacity: 0.5"/>
     <use xlink:href="#m126f9b72ab" x="430.74478" y="113.657314" style="fill: #4c72b0; fill-opacity: 0.5; stroke: #4c72b0; stroke-opacity: 0.5"/>
     <use xlink:href="#m126f9b72ab" x="421.975206" y="113.657314" style="fill: #4c72b0; fill-opacity: 0.5; stroke: #4c72b0; stroke-opacity: 0.5"/>
     <use xlink:href="#m126f9b72ab" x="380.579816" y="113.657314" style="fill: #4c72b0; fill-opacity: 0.5; stroke: #4c72b0; stroke-opacity: 0.5"/>
     <use xlink:href="#m126f9b72ab" x="497.956158" y="113.657314" style="fill: #4c72b0; fill-opacity: 0.5; stroke: #4c72b0; stroke-opacity: 0.5"/>
     <use xlink:href="#m126f9b72ab" x="399.767389" y="113.657314" style="fill: #4c72b0; fill-opacity: 0.5; stroke: #4c72b0; stroke-opacity: 0.5"/>
     <use xlink:href="#m126f9b72ab" x="404.160574" y="113.657314" style="fill: #4c72b0; fill-opacity: 0.5; stroke: #4c72b0; stroke-opacity: 0.5"/>
    </g>
   </g>
   <g id="line2d_18">
    <path d="M 51.181581 195.476815 
L 51.181581 31.837812 
" clip-path="url(#p5264f9b54a)" style="fill: none; stroke-dasharray: 1.1,1.815; stroke-dashoffset: 0; stroke: #55a868; stroke-opacity: 0.7; stroke-width: 1.1"/>
   </g>
   <g id="line2d_19">
    <path d="M 92.563533 195.476815 
L 92.563533 31.837812 
" clip-path="url(#p5264f9b54a)" style="fill: none; stroke-dasharray: 1.1,1.815; stroke-dashoffset: 0; stroke: #dd8452; stroke-opacity: 0.7; stroke-width: 1.1"/>
   </g>
   <g id="line2d_20">
    <path d="M 180.386936 195.476815 
L 180.386936 31.837812 
" clip-path="url(#p5264f9b54a)" style="fill: none; stroke-dasharray: 1.1,1.815; stroke-dashoffset: 0; stroke: #55a868; stroke-opacity: 0.7; stroke-width: 1.1"/>
   </g>
   <g id="line2d_21">
    <path d="M 91.660371 150.476089 
L 91.660371 76.838538 
" clip-path="url(#p5264f9b54a)" style="fill: none; stroke: #dd8452; stroke-width: 2.5"/>
   </g>
   <g id="patch_4">
    <path d="M 7.2 195.476815 
L 633.6 195.476815 
" style="fill: none; stroke: #e2e2ea; stroke-width: 0.8; stroke-linejoin: miter; stroke-linecap: square"/>
   </g>
   <g id="patch_5">
    <path d="M 51.181581 90.753804 
Q 51.181581 101.206046 51.181581 111.658289 
" style="fill: none; stroke: #55a868; stroke-width: 0.8; stroke-linecap: round"/>
   </g>
   <g id="text_8">
    <g id="patch_6">
     <path d="M 26.994081 88.357314 
L 75.369081 88.357314 
Q 78.069081 88.357314 78.069081 85.657314 
L 78.069081 66.86897 
Q 78.069081 64.16897 75.369081 64.16897 
L 26.994081 64.16897 
Q 24.294081 64.16897 24.294081 66.86897 
L 24.294081 85.657314 
Q 24.294081 88.357314 26.994081 88.357314 
z
" style="fill: #f7f7f9; opacity: 0.9; stroke: #55a868; stroke-width: 0.8; stroke-linejoin: miter"/>
    </g>
    <!-- Q1 -->
    <g style="fill: #55a868" transform="translate(44.224862 73.707564) scale(0.09 -0.09)">
     <defs>
      <path id="DejaVuSans-Bold-51" d="M 2847 -84 
L 2753 -84 
Q 1600 -84 959 553 
Q 319 1191 319 2328 
Q 319 3463 958 4106 
Q 1597 4750 2719 4750 
Q 3853 4750 4486 4112 
Q 5119 3475 5119 2328 
Q 5119 1541 4783 972 
Q 4447 403 3816 116 
L 4756 -934 
L 3609 -934 
L 2847 -84 
z
M 2719 3878 
Q 2169 3878 1866 3472 
Q 1563 3066 1563 2328 
Q 1563 1578 1859 1179 
Q 2156 781 2719 781 
Q 3272 781 3575 1187 
Q 3878 1594 3878 2328 
Q 3878 3066 3575 3472 
Q 3272 3878 2719 3878 
z
" transform="scale(0.015625)"/>
      <path id="DejaVuSans-Bold-31" d="M 750 831 
L 1813 831 
L 1813 3847 
L 722 3622 
L 722 4441 
L 1806 4666 
L 2950 4666 
L 2950 831 
L 4013 831 
L 4013 0 
L 750 0 
L 750 831 
z
" transform="scale(0.015625)"/>
     </defs>
     <use xlink:href="#DejaVuSans-Bold-51"/>
     <use xlink:href="#DejaVuSans-Bold-31" transform="translate(85.009766 0)"/>
    </g>
    <!-- 1.38e+04 -->
    <g style="fill: #55a868" transform="translate(26.994081 83.785595) scale(0.09 -0.09)">
     <defs>
      <path id="DejaVuSans-Bold-2e" d="M 653 1209 
L 1778 1209 
L 1778 0 
L 653 0 
L 653 1209 
z
" transform="scale(0.015625)"/>
      <path id="DejaVuSans-Bold-33" d="M 2981 2516 
Q 3453 2394 3698 2092 
Q 3944 1791 3944 1325 
Q 3944 631 3412 270 
Q 2881 -91 1863 -91 
Q 1503 -91 1142 -33 
Q 781 25 428 141 
L 428 1069 
Q 766 900 1098 814 
Q 1431 728 1753 728 
Q 2231 728 2486 893 
Q 2741 1059 2741 1369 
Q 2741 1688 2480 1852 
Q 2219 2016 1709 2016 
L 1228 2016 
L 1228 2791 
L 1734 2791 
Q 2188 2791 2409 2933 
Q 2631 3075 2631 3366 
Q 2631 3634 2415 3781 
Q 2200 3928 1806 3928 
Q 1516 3928 1219 3862 
Q 922 3797 628 3669 
L 628 4550 
Q 984 4650 1334 4700 
Q 1684 4750 2022 4750 
Q 2931 4750 3382 4451 
Q 3834 4153 3834 3553 
Q 3834 3144 3618 2883 
Q 3403 2622 2981 2516 
z
" transform="scale(0.015625)"/>
      <path id="DejaVuSans-Bold-38" d="M 2228 2088 
Q 1891 2088 1709 1903 
Q 1528 1719 1528 1375 
Q 1528 1031 1709 848 
Q 1891 666 2228 666 
Q 2563 666 2741 848 
Q 2919 1031 2919 1375 
Q 2919 1722 2741 1905 
Q 2563 2088 2228 2088 
z
M 1350 2484 
Q 925 2613 709 2878 
Q 494 3144 494 3541 
Q 494 4131 934 4440 
Q 1375 4750 2228 4750 
Q 3075 4750 3515 4442 
Q 3956 4134 3956 3541 
Q 3956 3144 3739 2878 
Q 3522 2613 3097 2484 
Q 3572 2353 3814 2058 
Q 4056 1763 4056 1313 
Q 4056 619 3595 264 
Q 3134 -91 2228 -91 
Q 1319 -91 855 264 
Q 391 619 391 1313 
Q 391 1763 633 2058 
Q 875 2353 1350 2484 
z
M 1631 3419 
Q 1631 3141 1786 2991 
Q 1941 2841 2228 2841 
Q 2509 2841 2662 2991 
Q 2816 3141 2816 3419 
Q 2816 3697 2662 3845 
Q 2509 3994 2228 3994 
Q 1941 3994 1786 3844 
Q 1631 3694 1631 3419 
z
" transform="scale(0.015625)"/>
      <path id="DejaVuSans-Bold-65" d="M 4031 1759 
L 4031 1441 
L 1416 1441 
Q 1456 1047 1700 850 
Q 1944 653 2381 653 
Q 2734 653 3104 758 
Q 3475 863 3866 1075 
L 3866 213 
Q 3469 63 3072 -14 
Q 2675 -91 2278 -91 
Q 1328 -91 801 392 
Q 275 875 275 1747 
Q 275 2603 792 3093 
Q 1309 3584 2216 3584 
Q 3041 3584 3536 3087 
Q 4031 2591 4031 1759 
z
M 2881 2131 
Q 2881 2450 2695 2645 
Q 2509 2841 2209 2841 
Q 1884 2841 1681 2658 
Q 1478 2475 1428 2131 
L 2881 2131 
z
" transform="scale(0.015625)"/>
      <path id="DejaVuSans-Bold-2b" d="M 3053 4013 
L 3053 2375 
L 4684 2375 
L 4684 1638 
L 3053 1638 
L 3053 0 
L 2309 0 
L 2309 1638 
L 678 1638 
L 678 2375 
L 2309 2375 
L 2309 4013 
L 3053 4013 
z
" transform="scale(0.015625)"/>
      <path id="DejaVuSans-Bold-30" d="M 2944 2338 
Q 2944 3213 2780 3570 
Q 2616 3928 2228 3928 
Q 1841 3928 1675 3570 
Q 1509 3213 1509 2338 
Q 1509 1453 1675 1090 
Q 1841 728 2228 728 
Q 2613 728 2778 1090 
Q 2944 1453 2944 2338 
z
M 4147 2328 
Q 4147 1169 3647 539 
Q 3147 -91 2228 -91 
Q 1306 -91 806 539 
Q 306 1169 306 2328 
Q 306 3491 806 4120 
Q 1306 4750 2228 4750 
Q 3147 4750 3647 4120 
Q 4147 3491 4147 2328 
z
" transform="scale(0.015625)"/>
      <path id="DejaVuSans-Bold-34" d="M 2356 3675 
L 1038 1722 
L 2356 1722 
L 2356 3675 
z
M 2156 4666 
L 3494 4666 
L 3494 1722 
L 4159 1722 
L 4159 850 
L 3494 850 
L 3494 0 
L 2356 0 
L 2356 850 
L 288 850 
L 288 1881 
L 2156 4666 
z
" transform="scale(0.015625)"/>
     </defs>
     <use xlink:href="#DejaVuSans-Bold-31"/>
     <use xlink:href="#DejaVuSans-Bold-2e" transform="translate(69.580078 0)"/>
     <use xlink:href="#DejaVuSans-Bold-33" transform="translate(107.568359 0)"/>
     <use xlink:href="#DejaVuSans-Bold-38" transform="translate(177.148438 0)"/>
     <use xlink:href="#DejaVuSans-Bold-65" transform="translate(246.728516 0)"/>
     <use xlink:href="#DejaVuSans-Bold-2b" transform="translate(314.550781 0)"/>
     <use xlink:href="#DejaVuSans-Bold-30" transform="translate(398.339844 0)"/>
     <use xlink:href="#DejaVuSans-Bold-34" transform="translate(467.919922 0)"/>
    </g>
   </g>
   <g id="patch_7">
    <path d="M 92.563533 136.560824 
Q 92.563533 126.108581 92.563533 115.656338 
" style="fill: none; stroke: #dd8452; stroke-width: 0.8; stroke-linecap: round"/>
   </g>
   <g id="text_9">
    <g id="patch_8">
     <path d="M 68.376033 163.145657 
L 116.751033 163.145657 
Q 119.451033 163.145657 119.451033 160.445657 
L 119.451033 141.657314 
Q 119.451033 138.957314 116.751033 138.957314 
L 68.376033 138.957314 
Q 65.676033 138.957314 65.676033 141.657314 
L 65.676033 160.445657 
Q 65.676033 163.145657 68.376033 163.145657 
z
" style="fill: #f7f7f9; opacity: 0.9; stroke: #dd8452; stroke-width: 0.8; stroke-linejoin: miter"/>
    </g>
    <!-- Median -->
    <g style="fill: #dd8452" transform="translate(74.029158 148.495907) scale(0.09 -0.09)">
     <defs>
      <path id="DejaVuSans-Bold-4d" d="M 588 4666 
L 2119 4666 
L 3181 2169 
L 4250 4666 
L 5778 4666 
L 5778 0 
L 4641 0 
L 4641 3413 
L 3566 897 
L 2803 897 
L 1728 3413 
L 1728 0 
L 588 0 
L 588 4666 
z
" transform="scale(0.015625)"/>
      <path id="DejaVuSans-Bold-64" d="M 2919 2988 
L 2919 4863 
L 4044 4863 
L 4044 0 
L 2919 0 
L 2919 506 
Q 2688 197 2409 53 
Q 2131 -91 1766 -91 
Q 1119 -91 703 423 
Q 288 938 288 1747 
Q 288 2556 703 3070 
Q 1119 3584 1766 3584 
Q 2128 3584 2408 3439 
Q 2688 3294 2919 2988 
z
M 2181 722 
Q 2541 722 2730 984 
Q 2919 1247 2919 1747 
Q 2919 2247 2730 2509 
Q 2541 2772 2181 2772 
Q 1825 2772 1636 2509 
Q 1447 2247 1447 1747 
Q 1447 1247 1636 984 
Q 1825 722 2181 722 
z
" transform="scale(0.015625)"/>
      <path id="DejaVuSans-Bold-69" d="M 538 3500 
L 1656 3500 
L 1656 0 
L 538 0 
L 538 3500 
z
M 538 4863 
L 1656 4863 
L 1656 3950 
L 538 3950 
L 538 4863 
z
" transform="scale(0.015625)"/>
      <path id="DejaVuSans-Bold-61" d="M 2106 1575 
Q 1756 1575 1579 1456 
Q 1403 1338 1403 1106 
Q 1403 894 1545 773 
Q 1688 653 1941 653 
Q 2256 653 2472 879 
Q 2688 1106 2688 1447 
L 2688 1575 
L 2106 1575 
z
M 3816 1997 
L 3816 0 
L 2688 0 
L 2688 519 
Q 2463 200 2181 54 
Q 1900 -91 1497 -91 
Q 953 -91 614 226 
Q 275 544 275 1050 
Q 275 1666 698 1953 
Q 1122 2241 2028 2241 
L 2688 2241 
L 2688 2328 
Q 2688 2594 2478 2717 
Q 2269 2841 1825 2841 
Q 1466 2841 1156 2769 
Q 847 2697 581 2553 
L 581 3406 
Q 941 3494 1303 3539 
Q 1666 3584 2028 3584 
Q 2975 3584 3395 3211 
Q 3816 2838 3816 1997 
z
" transform="scale(0.015625)"/>
      <path id="DejaVuSans-Bold-6e" d="M 4056 2131 
L 4056 0 
L 2931 0 
L 2931 347 
L 2931 1631 
Q 2931 2084 2911 2256 
Q 2891 2428 2841 2509 
Q 2775 2619 2662 2680 
Q 2550 2741 2406 2741 
Q 2056 2741 1856 2470 
Q 1656 2200 1656 1722 
L 1656 0 
L 538 0 
L 538 3500 
L 1656 3500 
L 1656 2988 
Q 1909 3294 2193 3439 
Q 2478 3584 2822 3584 
Q 3428 3584 3742 3212 
Q 4056 2841 4056 2131 
z
" transform="scale(0.015625)"/>
     </defs>
     <use xlink:href="#DejaVuSans-Bold-4d"/>
     <use xlink:href="#DejaVuSans-Bold-65" transform="translate(99.511719 0)"/>
     <use xlink:href="#DejaVuSans-Bold-64" transform="translate(167.333984 0)"/>
     <use xlink:href="#DejaVuSans-Bold-69" transform="translate(238.916016 0)"/>
     <use xlink:href="#DejaVuSans-Bold-61" transform="translate(273.193359 0)"/>
     <use xlink:href="#DejaVuSans-Bold-6e" transform="translate(340.673828 0)"/>
    </g>
    <!-- 5.08e+04 -->
    <g style="fill: #dd8452" transform="translate(68.376033 158.573939) scale(0.09 -0.09)">
     <defs>
      <path id="DejaVuSans-Bold-35" d="M 678 4666 
L 3669 4666 
L 3669 3781 
L 1638 3781 
L 1638 3059 
Q 1775 3097 1914 3117 
Q 2053 3138 2203 3138 
Q 3056 3138 3531 2711 
Q 4006 2284 4006 1522 
Q 4006 766 3489 337 
Q 2972 -91 2053 -91 
Q 1656 -91 1267 -14 
Q 878 63 494 219 
L 494 1166 
Q 875 947 1217 837 
Q 1559 728 1863 728 
Q 2300 728 2551 942 
Q 2803 1156 2803 1522 
Q 2803 1891 2551 2103 
Q 2300 2316 1863 2316 
Q 1603 2316 1309 2248 
Q 1016 2181 678 2041 
L 678 4666 
z
" transform="scale(0.015625)"/>
     </defs>
     <use xlink:href="#DejaVuSans-Bold-35"/>
     <use xlink:href="#DejaVuSans-Bold-2e" transform="translate(69.580078 0)"/>
     <use xlink:href="#DejaVuSans-Bold-30" transform="translate(107.568359 0)"/>
     <use xlink:href="#DejaVuSans-Bold-38" transform="translate(177.148438 0)"/>
     <use xlink:href="#DejaVuSans-Bold-65" transform="translate(246.728516 0)"/>
     <use xlink:href="#DejaVuSans-Bold-2b" transform="translate(314.550781 0)"/>
     <use xlink:href="#DejaVuSans-Bold-30" transform="translate(398.339844 0)"/>
     <use xlink:href="#DejaVuSans-Bold-34" transform="translate(467.919922 0)"/>
    </g>
   </g>
   <g id="patch_9">
    <path d="M 180.386936 90.753804 
Q 180.386936 101.206046 180.386936 111.658289 
" style="fill: none; stroke: #55a868; stroke-width: 0.8; stroke-linecap: round"/>
   </g>
   <g id="text_10">
    <g id="patch_10">
     <path d="M 156.199436 88.357314 
L 204.574436 88.357314 
Q 207.274436 88.357314 207.274436 85.657314 
L 207.274436 66.86897 
Q 207.274436 64.16897 204.574436 64.16897 
L 156.199436 64.16897 
Q 153.499436 64.16897 153.499436 66.86897 
L 153.499436 85.657314 
Q 153.499436 88.357314 156.199436 88.357314 
z
" style="fill: #f7f7f9; opacity: 0.9; stroke: #55a868; stroke-width: 0.8; stroke-linejoin: miter"/>
    </g>
    <!-- Q3 -->
    <g style="fill: #55a868" transform="translate(173.430218 73.707564) scale(0.09 -0.09)">
     <use xlink:href="#DejaVuSans-Bold-51"/>
     <use xlink:href="#DejaVuSans-Bold-33" transform="translate(85.009766 0)"/>
    </g>
    <!-- 1.29e+05 -->
    <g style="fill: #55a868" transform="translate(156.199436 83.785595) scale(0.09 -0.09)">
     <defs>
      <path id="DejaVuSans-Bold-32" d="M 1844 884 
L 3897 884 
L 3897 0 
L 506 0 
L 506 884 
L 2209 2388 
Q 2438 2594 2547 2791 
Q 2656 2988 2656 3200 
Q 2656 3528 2436 3728 
Q 2216 3928 1850 3928 
Q 1569 3928 1234 3808 
Q 900 3688 519 3450 
L 519 4475 
Q 925 4609 1322 4679 
Q 1719 4750 2100 4750 
Q 2938 4750 3402 4381 
Q 3866 4013 3866 3353 
Q 3866 2972 3669 2642 
Q 3472 2313 2841 1759 
L 1844 884 
z
" transform="scale(0.015625)"/>
      <path id="DejaVuSans-Bold-39" d="M 641 103 
L 641 966 
Q 928 831 1190 764 
Q 1453 697 1709 697 
Q 2247 697 2547 995 
Q 2847 1294 2900 1881 
Q 2688 1725 2447 1647 
Q 2206 1569 1925 1569 
Q 1209 1569 770 1986 
Q 331 2403 331 3084 
Q 331 3838 820 4291 
Q 1309 4744 2131 4744 
Q 3044 4744 3544 4128 
Q 4044 3513 4044 2388 
Q 4044 1231 3459 570 
Q 2875 -91 1856 -91 
Q 1528 -91 1228 -42 
Q 928 6 641 103 
z
M 2125 2350 
Q 2441 2350 2600 2554 
Q 2759 2759 2759 3169 
Q 2759 3575 2600 3781 
Q 2441 3988 2125 3988 
Q 1809 3988 1650 3781 
Q 1491 3575 1491 3169 
Q 1491 2759 1650 2554 
Q 1809 2350 2125 2350 
z
" transform="scale(0.015625)"/>
     </defs>
     <use xlink:href="#DejaVuSans-Bold-31"/>
     <use xlink:href="#DejaVuSans-Bold-2e" transform="translate(69.580078 0)"/>
     <use xlink:href="#DejaVuSans-Bold-32" transform="translate(107.568359 0)"/>
     <use xlink:href="#DejaVuSans-Bold-39" transform="translate(177.148438 0)"/>
     <use xlink:href="#DejaVuSans-Bold-65" transform="translate(246.728516 0)"/>
     <use xlink:href="#DejaVuSans-Bold-2b" transform="translate(314.550781 0)"/>
     <use xlink:href="#DejaVuSans-Bold-30" transform="translate(398.339844 0)"/>
     <use xlink:href="#DejaVuSans-Bold-35" transform="translate(467.919922 0)"/>
    </g>
   </g>
   <g id="text_11">
    <!-- n = 480,535   min = 1   max = 5.18e+05   IQR = 1.15e+05 -->
    <g style="fill: #7a7a8c" transform="translate(388.08725 42.825733) scale(0.08 -0.08)">
     <defs>
      <path id="DejaVuSans-3d" d="M 678 2906 
L 4684 2906 
L 4684 2381 
L 678 2381 
L 678 2906 
z
M 678 1631 
L 4684 1631 
L 4684 1100 
L 678 1100 
L 678 1631 
z
" transform="scale(0.015625)"/>
      <path id="DejaVuSans-38" d="M 2034 2216 
Q 1584 2216 1326 1975 
Q 1069 1734 1069 1313 
Q 1069 891 1326 650 
Q 1584 409 2034 409 
Q 2484 409 2743 651 
Q 3003 894 3003 1313 
Q 3003 1734 2745 1975 
Q 2488 2216 2034 2216 
z
M 1403 2484 
Q 997 2584 770 2862 
Q 544 3141 544 3541 
Q 544 4100 942 4425 
Q 1341 4750 2034 4750 
Q 2731 4750 3128 4425 
Q 3525 4100 3525 3541 
Q 3525 3141 3298 2862 
Q 3072 2584 2669 2484 
Q 3125 2378 3379 2068 
Q 3634 1759 3634 1313 
Q 3634 634 3220 271 
Q 2806 -91 2034 -91 
Q 1263 -91 848 271 
Q 434 634 434 1313 
Q 434 1759 690 2068 
Q 947 2378 1403 2484 
z
M 1172 3481 
Q 1172 3119 1398 2916 
Q 1625 2713 2034 2713 
Q 2441 2713 2670 2916 
Q 2900 3119 2900 3481 
Q 2900 3844 2670 4047 
Q 2441 4250 2034 4250 
Q 1625 4250 1398 4047 
Q 1172 3844 1172 3481 
z
" transform="scale(0.015625)"/>
      <path id="DejaVuSans-2c" d="M 750 794 
L 1409 794 
L 1409 256 
L 897 -744 
L 494 -744 
L 750 256 
L 750 794 
z
" transform="scale(0.015625)"/>
      <path id="DejaVuSans-6d" d="M 3328 2828 
Q 3544 3216 3844 3400 
Q 4144 3584 4550 3584 
Q 5097 3584 5394 3201 
Q 5691 2819 5691 2113 
L 5691 0 
L 5113 0 
L 5113 2094 
Q 5113 2597 4934 2840 
Q 4756 3084 4391 3084 
Q 3944 3084 3684 2787 
Q 3425 2491 3425 1978 
L 3425 0 
L 2847 0 
L 2847 2094 
Q 2847 2600 2669 2842 
Q 2491 3084 2119 3084 
Q 1678 3084 1418 2786 
Q 1159 2488 1159 1978 
L 1159 0 
L 581 0 
L 581 3500 
L 1159 3500 
L 1159 2956 
Q 1356 3278 1631 3431 
Q 1906 3584 2284 3584 
Q 2666 3584 2933 3390 
Q 3200 3197 3328 2828 
z
" transform="scale(0.015625)"/>
      <path id="DejaVuSans-78" d="M 3513 3500 
L 2247 1797 
L 3578 0 
L 2900 0 
L 1881 1375 
L 863 0 
L 184 0 
L 1544 1831 
L 300 3500 
L 978 3500 
L 1906 2253 
L 2834 3500 
L 3513 3500 
z
" transform="scale(0.015625)"/>
      <path id="DejaVuSans-2e" d="M 684 794 
L 1344 794 
L 1344 0 
L 684 0 
L 684 794 
z
" transform="scale(0.015625)"/>
      <path id="DejaVuSans-49" d="M 628 4666 
L 1259 4666 
L 1259 0 
L 628 0 
L 628 4666 
z
" transform="scale(0.015625)"/>
      <path id="DejaVuSans-51" d="M 2522 4238 
Q 1834 4238 1429 3725 
Q 1025 3213 1025 2328 
Q 1025 1447 1429 934 
Q 1834 422 2522 422 
Q 3209 422 3611 934 
Q 4013 1447 4013 2328 
Q 4013 3213 3611 3725 
Q 3209 4238 2522 4238 
z
M 3406 84 
L 4238 -825 
L 3475 -825 
L 2784 -78 
Q 2681 -84 2626 -87 
Q 2572 -91 2522 -91 
Q 1538 -91 948 567 
Q 359 1225 359 2328 
Q 359 3434 948 4092 
Q 1538 4750 2522 4750 
Q 3503 4750 4090 4092 
Q 4678 3434 4678 2328 
Q 4678 1516 4351 937 
Q 4025 359 3406 84 
z
" transform="scale(0.015625)"/>
      <path id="DejaVuSans-52" d="M 2841 2188 
Q 3044 2119 3236 1894 
Q 3428 1669 3622 1275 
L 4263 0 
L 3584 0 
L 2988 1197 
Q 2756 1666 2539 1819 
Q 2322 1972 1947 1972 
L 1259 1972 
L 1259 0 
L 628 0 
L 628 4666 
L 2053 4666 
Q 2853 4666 3247 4331 
Q 3641 3997 3641 3322 
Q 3641 2881 3436 2590 
Q 3231 2300 2841 2188 
z
M 1259 4147 
L 1259 2491 
L 2053 2491 
Q 2509 2491 2742 2702 
Q 2975 2913 2975 3322 
Q 2975 3731 2742 3939 
Q 2509 4147 2053 4147 
L 1259 4147 
z
" transform="scale(0.015625)"/>
     </defs>
     <use xlink:href="#DejaVuSans-6e"/>
     <use xlink:href="#DejaVuSans-20" transform="translate(63.378906 0)"/>
     <use xlink:href="#DejaVuSans-3d" transform="translate(95.166016 0)"/>
     <use xlink:href="#DejaVuSans-20" transform="translate(178.955078 0)"/>
     <use xlink:href="#DejaVuSans-34" transform="translate(210.742188 0)"/>
     <use xlink:href="#DejaVuSans-38" transform="translate(274.365234 0)"/>
     <use xlink:href="#DejaVuSans-30" transform="translate(337.988281 0)"/>
     <use xlink:href="#DejaVuSans-2c" transform="translate(401.611328 0)"/>
     <use xlink:href="#DejaVuSans-35" transform="translate(433.398438 0)"/>
     <use xlink:href="#DejaVuSans-33" transform="translate(497.021484 0)"/>
     <use xlink:href="#DejaVuSans-35" transform="translate(560.644531 0)"/>
     <use xlink:href="#DejaVuSans-20" transform="translate(624.267578 0)"/>
     <use xlink:href="#DejaVuSans-20" transform="translate(656.054688 0)"/>
     <use xlink:href="#DejaVuSans-20" transform="translate(687.841797 0)"/>
     <use xlink:href="#DejaVuSans-6d" transform="translate(719.628906 0)"/>
     <use xlink:href="#DejaVuSans-69" transform="translate(817.041016 0)"/>
     <use xlink:href="#DejaVuSans-6e" transform="translate(844.824219 0)"/>
     <use xlink:href="#DejaVuSans-20" transform="translate(908.203125 0)"/>
     <use xlink:href="#DejaVuSans-3d" transform="translate(939.990234 0)"/>
     <use xlink:href="#DejaVuSans-20" transform="translate(1023.779297 0)"/>
     <use xlink:href="#DejaVuSans-31" transform="translate(1055.566406 0)"/>
     <use xlink:href="#DejaVuSans-20" transform="translate(1119.189453 0)"/>
     <use xlink:href="#DejaVuSans-20" transform="translate(1150.976562 0)"/>
     <use xlink:href="#DejaVuSans-20" transform="translate(1182.763672 0)"/>
     <use xlink:href="#DejaVuSans-6d" transform="translate(1214.550781 0)"/>
     <use xlink:href="#DejaVuSans-61" transform="translate(1311.962891 0)"/>
     <use xlink:href="#DejaVuSans-78" transform="translate(1373.242188 0)"/>
     <use xlink:href="#DejaVuSans-20" transform="translate(1432.421875 0)"/>
     <use xlink:href="#DejaVuSans-3d" transform="translate(1464.208984 0)"/>
     <use xlink:href="#DejaVuSans-20" transform="translate(1547.998047 0)"/>
     <use xlink:href="#DejaVuSans-35" transform="translate(1579.785156 0)"/>
     <use xlink:href="#DejaVuSans-2e" transform="translate(1643.408203 0)"/>
     <use xlink:href="#DejaVuSans-31" transform="translate(1675.195312 0)"/>
     <use xlink:href="#DejaVuSans-38" transform="translate(1738.818359 0)"/>
     <use xlink:href="#DejaVuSans-65" transform="translate(1802.441406 0)"/>
     <use xlink:href="#DejaVuSans-2b" transform="translate(1863.964844 0)"/>
     <use xlink:href="#DejaVuSans-30" transform="translate(1947.753906 0)"/>
     <use xlink:href="#DejaVuSans-35" transform="translate(2011.376953 0)"/>
     <use xlink:href="#DejaVuSans-20" transform="translate(2075 0)"/>
     <use xlink:href="#DejaVuSans-20" transform="translate(2106.787109 0)"/>
     <use xlink:href="#DejaVuSans-20" transform="translate(2138.574219 0)"/>
     <use xlink:href="#DejaVuSans-49" transform="translate(2170.361328 0)"/>
     <use xlink:href="#DejaVuSans-51" transform="translate(2199.853516 0)"/>
     <use xlink:href="#DejaVuSans-52" transform="translate(2278.564453 0)"/>
     <use xlink:href="#DejaVuSans-20" transform="translate(2348.046875 0)"/>
     <use xlink:href="#DejaVuSans-3d" transform="translate(2379.833984 0)"/>
     <use xlink:href="#DejaVuSans-20" transform="translate(2463.623047 0)"/>
     <use xlink:href="#DejaVuSans-31" transform="translate(2495.410156 0)"/>
     <use xlink:href="#DejaVuSans-2e" transform="translate(2559.033203 0)"/>
     <use xlink:href="#DejaVuSans-31" transform="translate(2590.820312 0)"/>
     <use xlink:href="#DejaVuSans-35" transform="translate(2654.443359 0)"/>
     <use xlink:href="#DejaVuSans-65" transform="translate(2718.066406 0)"/>
     <use xlink:href="#DejaVuSans-2b" transform="translate(2779.589844 0)"/>
     <use xlink:href="#DejaVuSans-30" transform="translate(2863.378906 0)"/>
     <use xlink:href="#DejaVuSans-35" transform="translate(2927.001953 0)"/>
    </g>
   </g>
   <g id="text_12">
    <!-- Stack Distance Boxplot -->
    <g style="fill: #2d2d3a" transform="translate(229.05875 17.837812) scale(0.14 -0.14)">
     <defs>
      <path id="DejaVuSans-Bold-53" d="M 3834 4519 
L 3834 3531 
Q 3450 3703 3084 3790 
Q 2719 3878 2394 3878 
Q 1963 3878 1756 3759 
Q 1550 3641 1550 3391 
Q 1550 3203 1689 3098 
Q 1828 2994 2194 2919 
L 2706 2816 
Q 3484 2659 3812 2340 
Q 4141 2022 4141 1434 
Q 4141 663 3683 286 
Q 3225 -91 2284 -91 
Q 1841 -91 1394 -6 
Q 947 78 500 244 
L 500 1259 
Q 947 1022 1364 901 
Q 1781 781 2169 781 
Q 2563 781 2772 912 
Q 2981 1044 2981 1288 
Q 2981 1506 2839 1625 
Q 2697 1744 2272 1838 
L 1806 1941 
Q 1106 2091 782 2419 
Q 459 2747 459 3303 
Q 459 4000 909 4375 
Q 1359 4750 2203 4750 
Q 2588 4750 2994 4692 
Q 3400 4634 3834 4519 
z
" transform="scale(0.015625)"/>
      <path id="DejaVuSans-Bold-74" d="M 1759 4494 
L 1759 3500 
L 2913 3500 
L 2913 2700 
L 1759 2700 
L 1759 1216 
Q 1759 972 1856 886 
Q 1953 800 2241 800 
L 2816 800 
L 2816 0 
L 1856 0 
Q 1194 0 917 276 
Q 641 553 641 1216 
L 641 2700 
L 84 2700 
L 84 3500 
L 641 3500 
L 641 4494 
L 1759 4494 
z
" transform="scale(0.015625)"/>
      <path id="DejaVuSans-Bold-63" d="M 3366 3391 
L 3366 2478 
Q 3138 2634 2908 2709 
Q 2678 2784 2431 2784 
Q 1963 2784 1702 2511 
Q 1441 2238 1441 1747 
Q 1441 1256 1702 982 
Q 1963 709 2431 709 
Q 2694 709 2930 787 
Q 3166 866 3366 1019 
L 3366 103 
Q 3103 6 2833 -42 
Q 2563 -91 2291 -91 
Q 1344 -91 809 395 
Q 275 881 275 1747 
Q 275 2613 809 3098 
Q 1344 3584 2291 3584 
Q 2566 3584 2833 3536 
Q 3100 3488 3366 3391 
z
" transform="scale(0.015625)"/>
      <path id="DejaVuSans-Bold-6b" d="M 538 4863 
L 1656 4863 
L 1656 2216 
L 2944 3500 
L 4244 3500 
L 2534 1894 
L 4378 0 
L 3022 0 
L 1656 1459 
L 1656 0 
L 538 0 
L 538 4863 
z
" transform="scale(0.015625)"/>
      <path id="DejaVuSans-Bold-20" transform="scale(0.015625)"/>
      <path id="DejaVuSans-Bold-44" d="M 1791 3756 
L 1791 909 
L 2222 909 
Q 2959 909 3348 1275 
Q 3738 1641 3738 2338 
Q 3738 3031 3350 3393 
Q 2963 3756 2222 3756 
L 1791 3756 
z
M 588 4666 
L 1856 4666 
Q 2919 4666 3439 4514 
Q 3959 4363 4331 4000 
Q 4659 3684 4818 3271 
Q 4978 2859 4978 2338 
Q 4978 1809 4818 1395 
Q 4659 981 4331 666 
Q 3956 303 3431 151 
Q 2906 0 1856 0 
L 588 0 
L 588 4666 
z
" transform="scale(0.015625)"/>
      <path id="DejaVuSans-Bold-73" d="M 3272 3391 
L 3272 2541 
Q 2913 2691 2578 2766 
Q 2244 2841 1947 2841 
Q 1628 2841 1473 2761 
Q 1319 2681 1319 2516 
Q 1319 2381 1436 2309 
Q 1553 2238 1856 2203 
L 2053 2175 
Q 2913 2066 3209 1816 
Q 3506 1566 3506 1031 
Q 3506 472 3093 190 
Q 2681 -91 1863 -91 
Q 1516 -91 1145 -36 
Q 775 19 384 128 
L 384 978 
Q 719 816 1070 734 
Q 1422 653 1784 653 
Q 2113 653 2278 743 
Q 2444 834 2444 1013 
Q 2444 1163 2330 1236 
Q 2216 1309 1875 1350 
L 1678 1375 
Q 931 1469 631 1722 
Q 331 1975 331 2491 
Q 331 3047 712 3315 
Q 1094 3584 1881 3584 
Q 2191 3584 2531 3537 
Q 2872 3491 3272 3391 
z
" transform="scale(0.015625)"/>
      <path id="DejaVuSans-Bold-42" d="M 2456 2859 
Q 2741 2859 2887 2984 
Q 3034 3109 3034 3353 
Q 3034 3594 2887 3720 
Q 2741 3847 2456 3847 
L 1791 3847 
L 1791 2859 
L 2456 2859 
z
M 2497 819 
Q 2859 819 3042 972 
Q 3225 1125 3225 1434 
Q 3225 1738 3044 1889 
Q 2863 2041 2497 2041 
L 1791 2041 
L 1791 819 
L 2497 819 
z
M 3616 2497 
Q 4003 2384 4215 2081 
Q 4428 1778 4428 1338 
Q 4428 663 3972 331 
Q 3516 0 2584 0 
L 588 0 
L 588 4666 
L 2394 4666 
Q 3366 4666 3802 4372 
Q 4238 4078 4238 3431 
Q 4238 3091 4078 2852 
Q 3919 2613 3616 2497 
z
" transform="scale(0.015625)"/>
      <path id="DejaVuSans-Bold-6f" d="M 2203 2784 
Q 1831 2784 1636 2517 
Q 1441 2250 1441 1747 
Q 1441 1244 1636 976 
Q 1831 709 2203 709 
Q 2569 709 2762 976 
Q 2956 1244 2956 1747 
Q 2956 2250 2762 2517 
Q 2569 2784 2203 2784 
z
M 2203 3584 
Q 3106 3584 3614 3096 
Q 4122 2609 4122 1747 
Q 4122 884 3614 396 
Q 3106 -91 2203 -91 
Q 1297 -91 786 396 
Q 275 884 275 1747 
Q 275 2609 786 3096 
Q 1297 3584 2203 3584 
z
" transform="scale(0.015625)"/>
      <path id="DejaVuSans-Bold-78" d="M 1422 1791 
L 159 3500 
L 1344 3500 
L 2059 2463 
L 2784 3500 
L 3969 3500 
L 2706 1797 
L 4031 0 
L 2847 0 
L 2059 1106 
L 1281 0 
L 97 0 
L 1422 1791 
z
" transform="scale(0.015625)"/>
      <path id="DejaVuSans-Bold-70" d="M 1656 506 
L 1656 -1331 
L 538 -1331 
L 538 3500 
L 1656 3500 
L 1656 2988 
Q 1888 3294 2169 3439 
Q 2450 3584 2816 3584 
Q 3463 3584 3878 3070 
Q 4294 2556 4294 1747 
Q 4294 938 3878 423 
Q 3463 -91 2816 -91 
Q 2450 -91 2169 54 
Q 1888 200 1656 506 
z
M 2400 2772 
Q 2041 2772 1848 2508 
Q 1656 2244 1656 1747 
Q 1656 1250 1848 986 
Q 2041 722 2400 722 
Q 2759 722 2948 984 
Q 3138 1247 3138 1747 
Q 3138 2247 2948 2509 
Q 2759 2772 2400 2772 
z
" transform="scale(0.015625)"/>
      <path id="DejaVuSans-Bold-6c" d="M 538 4863 
L 1656 4863 
L 1656 0 
L 538 0 
L 538 4863 
z
" transform="scale(0.015625)"/>
     </defs>
     <use xlink:href="#DejaVuSans-Bold-53"/>
     <use xlink:href="#DejaVuSans-Bold-74" transform="translate(72.021484 0)"/>
     <use xlink:href="#DejaVuSans-Bold-61" transform="translate(119.824219 0)"/>
     <use xlink:href="#DejaVuSans-Bold-63" transform="translate(187.304688 0)"/>
     <use xlink:href="#DejaVuSans-Bold-6b" transform="translate(246.582031 0)"/>
     <use xlink:href="#DejaVuSans-Bold-20" transform="translate(313.085938 0)"/>
     <use xlink:href="#DejaVuSans-Bold-44" transform="translate(347.900391 0)"/>
     <use xlink:href="#DejaVuSans-Bold-69" transform="translate(430.908203 0)"/>
     <use xlink:href="#DejaVuSans-Bold-73" transform="translate(465.185547 0)"/>
     <use xlink:href="#DejaVuSans-Bold-74" transform="translate(524.707031 0)"/>
     <use xlink:href="#DejaVuSans-Bold-61" transform="translate(572.509766 0)"/>
     <use xlink:href="#DejaVuSans-Bold-6e" transform="translate(639.990234 0)"/>
     <use xlink:href="#DejaVuSans-Bold-63" transform="translate(711.181641 0)"/>
     <use xlink:href="#DejaVuSans-Bold-65" transform="translate(770.458984 0)"/>
     <use xlink:href="#DejaVuSans-Bold-20" transform="translate(838.28125 0)"/>
     <use xlink:href="#DejaVuSans-Bold-42" transform="translate(873.095703 0)"/>
     <use xlink:href="#DejaVuSans-Bold-6f" transform="translate(949.316406 0)"/>
     <use xlink:href="#DejaVuSans-Bold-78" transform="translate(1018.017578 0)"/>
     <use xlink:href="#DejaVuSans-Bold-70" transform="translate(1082.519531 0)"/>
     <use xlink:href="#DejaVuSans-Bold-6c" transform="translate(1154.101562 0)"/>
     <use xlink:href="#DejaVuSans-Bold-6f" transform="translate(1188.378906 0)"/>
     <use xlink:href="#DejaVuSans-Bold-74" transform="translate(1257.080078 0)"/>
    </g>
   </g>
  </g>
 </g>
 <defs>
  <clipPath id="p5264f9b54a">
   <rect x="7.2" y="31.837812" width="626.4" height="163.639002"/>
  </clipPath>
 </defs>
</svg>
